<svg version="1.1" id="Layer_1" xmlns="http://www.w3.org/2000/svg" xmlns:xlink="http://www.w3.org/1999/xlink" x="0px" y="0px"
	 width="100%" viewBox="0 0 2560 2560" enable-background="new 0 0 2560 2560" xml:space="preserve">
<path fill="#2C2C2C" opacity="1.000000" stroke="none" 
	d="
M1178.000000,2562.000000 
	C785.333313,2562.000000 393.666656,2562.000000 2.000000,2562.000000 
	C2.000000,1708.666626 2.000000,855.333313 2.000000,2.000000 
	C855.333313,2.000000 1708.666626,2.000000 2562.000000,2.000000 
	C2562.000000,855.333313 2562.000000,1708.666626 2562.000000,2562.000000 
	C2101.000000,2562.000000 1640.000000,2562.000000 1178.000000,2562.000000 
M1750.374268,1616.200073 
	C1750.717651,1616.475830 1751.060913,1616.751465 1751.381592,1618.582886 
	C1746.637085,1634.891235 1741.373413,1651.073486 1737.372925,1667.562378 
	C1735.447021,1675.500244 1734.821167,1684.108887 1735.520874,1692.249146 
	C1736.718262,1706.176880 1744.671875,1713.360596 1758.677979,1713.184692 
	C1766.513672,1713.086426 1774.727539,1711.586670 1782.042480,1708.803467 
	C1793.471436,1704.455200 1804.281860,1698.481445 1815.604492,1693.077148 
	C1839.587524,1718.646362 1849.659912,1719.486206 1889.696411,1698.358154 
	C1890.066406,1706.891602 1888.541382,1713.794312 1880.998169,1719.100342 
	C1868.193848,1728.107544 1855.881836,1737.817993 1843.426514,1747.316284 
	C1826.010254,1760.597290 1811.690186,1776.868408 1799.937622,1795.158813 
	C1795.584717,1801.933105 1792.526001,1810.298584 1791.474854,1818.280518 
	C1789.100220,1836.312378 1798.588989,1847.527954 1816.580688,1850.260864 
	C1833.916748,1852.894409 1849.630615,1848.928467 1863.886963,1838.782837 
	C1878.735596,1828.216064 1889.670410,1814.400146 1895.587769,1797.324219 
	C1902.447388,1777.529785 1908.235596,1757.350708 1913.999146,1737.198608 
	C1915.561523,1731.735840 1917.664551,1727.595215 1922.771484,1724.733765 
	C1934.688232,1718.056885 1946.367065,1710.956543 1958.208130,1704.142456 
	C1960.094727,1703.057129 1962.323242,1702.566528 1964.358398,1701.813965 
	C1965.236084,1703.205933 1965.865356,1703.994385 1966.273071,1704.884399 
	C1969.110596,1711.078247 1973.961060,1713.814575 1980.690918,1713.435913 
	C1987.399536,1713.058350 1991.862915,1709.641968 1994.359375,1703.477173 
	C1995.484497,1700.698853 1996.785767,1697.989258 1997.845215,1695.187134 
	C2009.364258,1664.720825 2029.740479,1640.839355 2053.975830,1619.875610 
	C2056.512939,1617.680786 2059.785645,1616.336060 2062.717285,1614.597046 
	C2063.296875,1615.109009 2063.876709,1615.621094 2064.456543,1616.133057 
	C2063.463623,1619.506958 2062.644775,1622.944092 2061.446777,1626.243408 
	C2057.353516,1637.515625 2052.566895,1648.571777 2049.135498,1660.036743 
	C2046.582031,1668.568726 2044.576416,1677.575195 2044.335571,1686.425171 
	C2043.803345,1705.985229 2054.718262,1715.275024 2073.965332,1712.938232 
	C2100.218262,1709.750610 2122.754150,1697.689209 2143.985107,1682.903320 
	C2152.319092,1677.099243 2153.887695,1668.343994 2149.652832,1658.855103 
	C2146.064209,1650.814453 2141.219238,1649.535522 2133.885986,1654.491089 
	C2122.576172,1662.134155 2111.282471,1669.808594 2099.790039,1677.170044 
	C2095.896729,1679.663940 2091.563721,1681.667114 2087.180420,1683.153931 
	C2080.502197,1685.419067 2077.212891,1682.933228 2078.497070,1676.013428 
	C2080.069336,1667.540527 2082.186768,1659.039795 2085.246338,1650.999268 
	C2091.405273,1634.813843 2098.464844,1618.973145 2104.924561,1602.898682 
	C2106.775879,1598.291992 2108.146484,1593.435913 2109.190430,1588.576538 
	C2110.340332,1583.226074 2108.471680,1578.353271 2103.972656,1575.422485 
	C2100.173828,1572.948120 2095.771973,1570.987305 2091.366211,1569.944702 
	C2082.752441,1567.906616 2074.982178,1571.025513 2067.596436,1575.324341 
	C2043.257080,1589.491943 2023.426758,1608.421753 2007.729858,1631.755249 
	C2005.782593,1634.649780 2003.669556,1637.432861 2001.633301,1640.267578 
	C2000.930908,1639.970581 2000.228638,1639.673584 1999.526367,1639.376587 
	C1999.458984,1631.586914 2002.175415,1624.065308 2002.859009,1616.351074 
	C2003.549561,1608.556885 2007.248779,1603.025879 2013.034668,1597.808105 
	C2035.330688,1577.700928 2056.644043,1556.579590 2074.906250,1532.632080 
	C2088.730957,1514.503540 2100.590576,1495.160156 2106.858643,1473.070190 
	C2109.180664,1464.887695 2110.522217,1455.998169 2110.076660,1447.548828 
	C2109.168457,1430.328003 2096.545166,1418.938721 2079.278076,1418.138550 
	C2066.091064,1417.527466 2053.898193,1421.177490 2043.900879,1429.540894 
	C2035.799927,1436.317749 2028.270142,1444.085327 2021.785400,1452.423218 
	C2007.927368,1470.241089 1999.031494,1490.761108 1992.272461,1512.176636 
	C1977.065918,1560.357422 1967.069580,1609.561035 1964.155273,1660.072021 
	C1963.853394,1665.304810 1962.144653,1668.422729 1957.608887,1671.231567 
	C1948.276367,1677.010376 1939.458496,1683.619507 1930.415649,1689.867676 
	C1928.042114,1691.507568 1925.620361,1693.077271 1921.812500,1695.619385 
	C1922.205933,1691.454956 1922.182373,1688.899048 1922.724731,1686.469727 
	C1924.683960,1677.691284 1926.833008,1668.955200 1928.911499,1660.203369 
	C1933.761230,1639.782837 1938.712036,1619.385864 1943.425415,1598.933960 
	C1946.462769,1585.755249 1940.961548,1579.271362 1927.274048,1579.483765 
	C1924.985474,1579.519165 1922.700317,1579.778442 1920.226562,1579.947021 
	C1915.688354,1571.244995 1908.056885,1570.098633 1899.615845,1570.582886 
	C1884.267456,1571.463867 1870.110596,1575.901855 1857.610840,1584.903809 
	C1834.236816,1601.737305 1818.604004,1623.732056 1813.041870,1652.417969 
	C1812.311646,1656.184326 1811.479248,1661.110474 1808.865356,1663.117188 
	C1799.946533,1669.963379 1790.360596,1675.995850 1780.692749,1681.776245 
	C1777.892700,1683.450195 1773.963867,1683.236572 1770.433228,1683.911133 
	C1767.476685,1676.161011 1769.321899,1669.631348 1771.059937,1663.335327 
	C1774.072021,1652.424194 1777.777222,1641.706421 1781.021973,1630.856812 
	C1784.647949,1618.733154 1788.654907,1606.683105 1791.460327,1594.365112 
	C1795.004395,1578.803467 1784.545532,1567.165039 1768.638550,1569.300903 
	C1761.623657,1570.242920 1754.084473,1572.839966 1748.406616,1576.935913 
	C1738.761841,1583.893433 1729.512817,1591.859863 1721.729248,1600.819824 
	C1712.158081,1611.838013 1704.275513,1624.321045 1695.622314,1636.140991 
	C1694.246826,1638.019897 1692.658936,1639.743042 1691.169067,1641.538086 
	C1690.166382,1637.801270 1690.308472,1634.820923 1691.032959,1631.989746 
	C1694.499756,1618.443481 1698.121704,1604.937134 1701.694458,1591.418213 
	C1702.458374,1588.527222 1703.634155,1585.684448 1703.949707,1582.747559 
	C1704.755493,1575.250488 1699.939819,1569.862305 1692.424438,1569.498413 
	C1685.903320,1569.182495 1680.591064,1571.732910 1677.054932,1577.132690 
	C1674.892822,1580.434570 1673.221313,1584.147949 1671.863037,1587.871216 
	C1663.844727,1609.852661 1657.996826,1632.369507 1655.438965,1655.690430 
	C1655.080688,1658.957397 1655.030640,1663.063110 1653.096191,1665.214722 
	C1644.116943,1675.201660 1634.185791,1684.273926 1620.149658,1686.344604 
	C1610.147217,1687.820312 1603.828613,1683.259155 1602.563965,1673.227051 
	C1601.782959,1667.032104 1601.966064,1660.515869 1602.960693,1654.344482 
	C1604.386963,1645.495117 1606.268555,1636.594482 1609.180298,1628.137329 
	C1613.937988,1614.318848 1619.497681,1600.763794 1625.076172,1587.244873 
	C1628.747803,1578.346924 1626.699951,1573.391235 1617.482178,1570.821289 
	C1608.889282,1568.425537 1599.566284,1571.152832 1594.496826,1578.714233 
	C1590.262573,1585.029785 1586.022461,1591.747559 1583.780518,1598.911743 
	C1578.423828,1616.029663 1573.799194,1633.413940 1569.795410,1650.900635 
	C1568.036133,1658.583862 1567.819824,1666.802979 1568.100464,1674.736328 
	C1568.899780,1697.334351 1585.318848,1713.278320 1607.828369,1714.178467 
	C1621.569946,1714.727783 1634.190796,1711.121460 1646.004395,1704.307007 
	C1648.823242,1702.681030 1651.636597,1701.045288 1654.721436,1699.258423 
	C1656.403809,1702.292725 1657.513306,1704.722900 1658.999878,1706.895142 
	C1663.597778,1713.614380 1672.567505,1715.881958 1679.226074,1711.180908 
	C1682.552734,1708.832031 1684.984009,1704.834961 1687.041016,1701.148438 
	C1691.090942,1693.891357 1693.755859,1685.738892 1698.490112,1679.009644 
	C1711.324707,1660.766479 1724.801025,1642.965942 1738.359253,1625.247314 
	C1741.305908,1621.396484 1745.658081,1618.621216 1750.374268,1616.200073 
M1515.137085,786.385925 
	C1514.949951,789.865295 1514.762939,793.344727 1514.455811,799.056824 
	C1509.946777,794.898254 1507.038330,792.377502 1504.309326,789.675354 
	C1434.444580,720.494995 1364.601562,651.292603 1294.745117,582.103821 
	C1286.075928,573.517578 1285.421387,573.477661 1277.159058,581.737915 
	C1095.903320,762.946838 914.659119,944.167236 733.432068,1125.404785 
	C731.612549,1127.224365 730.049500,1129.300415 729.141174,1130.356323 
	C754.306274,1155.363159 779.020447,1179.921875 804.174683,1204.917969 
	C963.405090,1045.602295 1123.508179,885.413452 1283.613403,725.222473 
	C1444.834595,885.911377 1605.060059,1045.608032 1765.289307,1205.308350 
	C1774.276367,1198.981079 1834.577759,1137.115723 1838.992432,1128.823120 
	C1836.322754,1126.766602 1832.847168,1124.627319 1830.019897,1121.832275 
	C1759.865356,1052.470947 1689.878296,982.939575 1619.536255,913.769226 
	C1612.096924,906.453796 1608.748901,899.269897 1608.812012,888.622131 
	C1609.276367,810.301331 1609.073730,731.976562 1609.031616,653.653015 
	C1609.029419,649.502808 1608.580078,645.352905 1608.338745,641.200073 
	C1576.819336,641.200073 1546.633423,641.200073 1515.138062,641.200073 
	C1515.138062,689.404419 1515.138062,736.967773 1515.137085,786.385925 
M1186.216919,1075.000000 
	C1186.372803,1152.589111 1186.528076,1230.178223 1186.705811,1307.767334 
	C1186.706421,1308.041138 1187.015015,1308.326416 1187.209351,1308.584106 
	C1187.409180,1308.849365 1187.645264,1309.087280 1187.865479,1309.337158 
	C1202.300049,1311.298706 1378.053955,1310.541626 1385.051514,1308.487793 
	C1387.033447,1294.397827 1386.312866,977.428589 1384.282959,970.411804 
	C1370.452637,968.329468 1194.119385,969.103638 1186.216919,971.566284 
	C1186.216919,1005.179382 1186.216919,1039.089722 1186.216919,1075.000000 
M965.263184,1692.222534 
	C969.918701,1682.688721 974.508423,1673.121826 979.273865,1663.643188 
	C980.550842,1661.103271 981.822998,1657.635010 984.022583,1656.641357 
	C994.848572,1651.751099 1005.986084,1647.550659 1017.466064,1642.924316 
	C1017.466064,1650.012085 1017.266357,1656.870728 1017.510315,1663.713623 
	C1017.936401,1675.666260 1017.424133,1687.826416 1019.519287,1699.502441 
	C1022.288330,1714.934204 1032.494629,1718.686157 1046.208618,1710.697632 
	C1049.632812,1708.703125 1052.819458,1706.175537 1055.752563,1703.495850 
	C1059.187012,1700.358032 1062.588867,1697.058838 1065.366089,1693.351196 
	C1073.147827,1682.962402 1080.994629,1672.584473 1088.083740,1661.724487 
	C1097.052856,1647.984375 1106.767700,1634.936035 1118.720459,1623.659302 
	C1125.352905,1617.401978 1132.719116,1612.197021 1141.965332,1610.772217 
	C1144.327271,1610.408203 1148.214600,1610.833496 1149.120605,1612.302612 
	C1150.426758,1614.420776 1150.620605,1618.286255 1149.533691,1620.571167 
	C1147.879517,1624.048706 1145.064453,1627.199219 1142.128418,1629.793457 
	C1136.642456,1634.641113 1130.729370,1639.007080 1124.969482,1643.542236 
	C1117.022827,1649.798706 1110.144897,1657.033325 1105.565796,1666.109741 
	C1095.383301,1686.293213 1104.465210,1707.392944 1125.988770,1713.852783 
	C1136.525391,1717.015137 1147.123901,1717.089478 1157.413818,1713.128296 
	C1179.055542,1704.797119 1197.093628,1691.464966 1211.133057,1672.950562 
	C1213.092896,1670.365967 1214.681519,1667.212280 1215.455933,1664.078369 
	C1216.897583,1658.243286 1212.613037,1650.016724 1207.618164,1648.151489 
	C1201.356567,1645.812988 1198.583130,1650.386963 1195.561279,1654.429443 
	C1194.364868,1656.029907 1193.094604,1657.579590 1191.791260,1659.095093 
	C1183.251221,1669.025757 1173.552368,1677.613037 1162.164795,1684.158081 
	C1155.715332,1687.864868 1148.846924,1690.374634 1141.236816,1689.772461 
	C1132.073730,1689.047119 1128.395996,1683.996826 1131.862305,1675.616577 
	C1133.972412,1670.515137 1137.097412,1665.394165 1141.031128,1661.589233 
	C1146.968262,1655.845947 1153.893555,1651.084839 1160.606567,1646.191284 
	C1174.256348,1636.241699 1184.910400,1624.277100 1187.212036,1606.797241 
	C1190.055420,1585.203979 1176.629761,1571.263550 1154.959106,1572.926758 
	C1143.346802,1573.818115 1132.549438,1577.544067 1123.444702,1584.493164 
	C1113.430542,1592.136475 1103.729736,1600.417480 1095.034912,1609.512817 
	C1079.073975,1626.208740 1066.730957,1645.691406 1054.822266,1665.405273 
	C1053.188477,1668.109985 1051.325806,1670.676392 1048.664307,1674.661377 
	C1047.920654,1671.743164 1047.264893,1670.558350 1047.393921,1669.466187 
	C1049.074463,1655.243530 1050.681274,1641.006226 1052.795166,1626.845581 
	C1053.191650,1624.190186 1055.398315,1621.556763 1057.328247,1619.417114 
	C1075.174927,1599.631104 1093.445679,1580.219238 1110.982178,1560.164551 
	C1124.853271,1544.301636 1136.159302,1526.526123 1145.342773,1507.562622 
	C1149.823975,1498.309326 1153.443481,1488.579102 1156.717163,1478.817993 
	C1159.838745,1469.509399 1159.964355,1459.782715 1157.802734,1450.162964 
	C1154.605225,1435.933228 1144.730591,1427.906738 1130.124023,1427.408936 
	C1112.751709,1426.817139 1098.330444,1433.606323 1085.938843,1445.253052 
	C1069.582275,1460.626343 1058.493896,1479.450684 1050.346436,1500.167847 
	C1038.217041,1531.010132 1029.566284,1562.921387 1025.138550,1595.638184 
	C1023.180725,1610.104370 1016.151184,1617.662354 1004.134155,1622.837891 
	C1000.466187,1624.417725 996.805054,1626.074097 993.005371,1627.262207 
	C991.039001,1627.876953 988.776184,1627.543823 986.157227,1627.660889 
	C986.468689,1623.486450 986.802673,1620.206055 986.944824,1616.917480 
	C988.139465,1589.283691 967.509583,1566.790527 938.981995,1569.500000 
	C923.385681,1570.981323 910.001282,1576.882812 898.620483,1587.340698 
	C878.281555,1606.030518 866.884216,1629.094116 866.155212,1656.898560 
	C866.001892,1662.746338 864.535645,1667.198120 859.721680,1670.555542 
	C855.627014,1673.411133 852.007141,1677.184204 847.572510,1679.258423 
	C841.335510,1682.175781 834.686462,1684.907837 827.947266,1685.888672 
	C818.370544,1687.282715 812.041870,1682.801147 808.551575,1673.729248 
	C807.133850,1670.044312 806.032837,1666.027710 805.862976,1662.115479 
	C805.502747,1653.819214 805.953308,1645.491089 805.866455,1637.178223 
	C805.812683,1632.032471 808.171814,1628.600708 812.064819,1625.391357 
	C840.409790,1602.025879 863.012634,1573.744385 882.052185,1542.514771 
	C894.448608,1522.181519 904.197144,1500.668823 908.946289,1477.207642 
	C910.456726,1469.746216 911.768738,1462.002319 911.446045,1454.461426 
	C910.724304,1437.596436 898.690430,1427.158447 881.821167,1427.391113 
	C872.154907,1427.524414 863.204956,1430.320679 855.686218,1436.092773 
	C848.603943,1441.530029 841.856079,1447.640747 835.958008,1454.333862 
	C822.825867,1469.236450 812.990112,1486.424194 806.461792,1505.061157 
	C797.881836,1529.555054 789.732971,1554.280396 783.121277,1579.360474 
	C776.493042,1604.502808 772.536743,1630.269653 773.826233,1656.511353 
	C774.471680,1669.646606 776.966125,1682.326050 783.640198,1693.855225 
	C791.483643,1707.404663 803.186035,1714.259277 818.989929,1714.216675 
	C836.316833,1714.170044 851.566711,1708.228516 865.607788,1698.540161 
	C868.274719,1696.699829 870.996216,1694.938721 873.965210,1692.959351 
	C876.179504,1695.387451 877.973938,1697.288696 879.695312,1699.254028 
	C889.054382,1709.938599 900.975647,1715.069214 915.027832,1715.167847 
	C934.704285,1715.306030 951.692749,1709.130859 965.263184,1692.222534 
M536.645020,1732.308716 
	C539.180237,1733.129517 541.682190,1734.077026 544.255737,1734.751587 
	C575.589478,1742.966309 605.020874,1740.755005 631.000427,1719.083008 
	C640.782898,1710.922363 649.685181,1702.026367 656.652527,1691.282593 
	C657.963196,1689.261597 659.772766,1687.563965 662.718567,1684.119141 
	C663.077393,1689.239990 663.254089,1692.139771 663.489563,1695.034790 
	C663.867188,1699.676880 663.873535,1704.395142 664.754944,1708.942139 
	C668.508118,1728.303589 679.843567,1737.990601 699.610474,1737.730347 
	C720.173523,1737.459717 737.714294,1729.267578 752.506287,1715.093994 
	C753.463501,1714.176758 754.360107,1713.158081 755.105835,1712.064575 
	C759.406006,1705.759033 758.516602,1698.568848 752.819458,1693.092529 
	C747.530640,1688.008789 743.076599,1688.154663 736.044678,1693.320435 
	C731.758972,1696.468872 727.474304,1699.726685 722.802856,1702.207886 
	C719.050415,1704.200928 714.812195,1705.701172 710.622498,1706.363037 
	C701.456909,1707.811157 697.310669,1704.653076 696.456421,1695.491455 
	C695.934692,1689.896484 695.974976,1684.114502 696.763916,1678.558838 
	C698.589294,1665.704956 700.565674,1652.838989 703.293640,1640.152832 
	C712.817383,1595.862915 722.729431,1551.656494 732.392517,1507.396362 
	C734.715820,1496.755005 732.093994,1491.394531 722.212219,1487.847046 
	C709.026428,1483.113037 700.402344,1485.197266 697.251526,1500.436890 
	C688.890076,1540.878174 679.236023,1581.054199 669.946289,1621.301025 
	C665.621155,1640.039062 657.847168,1657.256714 646.027588,1672.524414 
	C638.414429,1682.358521 629.644897,1690.929810 618.644043,1696.993774 
	C573.615051,1721.814819 525.369446,1696.225342 522.182495,1645.138306 
	C521.194397,1629.298584 522.081543,1613.090942 524.262939,1597.350220 
	C531.291748,1546.630859 553.781982,1503.936890 595.525085,1473.455078 
	C644.346191,1437.804810 696.256287,1435.044312 749.628052,1463.538940 
	C755.776550,1466.821533 761.323303,1471.212280 767.334167,1474.777344 
	C774.039551,1478.754028 780.853149,1477.831299 785.556335,1472.739136 
	C790.376404,1467.520264 791.138855,1459.244751 786.927429,1453.349243 
	C785.017944,1450.676147 782.487854,1448.386353 779.998169,1446.196655 
	C740.593811,1411.539062 694.322327,1402.559204 644.498169,1413.353394 
	C584.779968,1426.291138 539.032104,1460.084717 508.791077,1513.458740 
	C482.409119,1560.021729 473.575989,1610.310913 482.191254,1663.033081 
	C487.393188,1694.866821 504.180908,1719.162964 536.645020,1732.308716 
M1354.403687,1716.889038 
	C1335.482300,1702.597534 1329.654663,1685.101318 1336.135864,1662.373535 
	C1337.411987,1657.898804 1338.857788,1653.381104 1339.334351,1648.790771 
	C1340.116577,1641.256104 1336.182129,1636.738159 1328.669678,1635.847412 
	C1320.298950,1634.854858 1312.778076,1637.031860 1306.434448,1642.667603 
	C1298.392578,1649.811890 1293.249146,1658.794434 1292.227295,1669.438599 
	C1289.660278,1696.175293 1297.964966,1718.746704 1319.497559,1735.616333 
	C1331.175049,1744.765015 1344.398193,1751.111206 1358.610474,1755.172729 
	C1392.681152,1764.909912 1426.989258,1765.265381 1461.316895,1756.659668 
	C1477.638184,1752.568115 1492.405396,1745.116699 1506.136230,1735.278320 
	C1544.181152,1708.018066 1547.552246,1644.999878 1508.036133,1617.060303 
	C1496.907104,1609.191528 1485.609985,1601.461792 1473.830200,1594.634399 
	C1454.234253,1583.276978 1434.052979,1572.932373 1414.385010,1561.694336 
	C1404.867065,1556.255981 1395.764771,1550.024658 1386.825928,1543.658447 
	C1379.101440,1538.157104 1375.417358,1530.066895 1374.037598,1520.747070 
	C1371.782837,1505.515869 1377.707031,1494.072632 1390.026855,1485.605591 
	C1412.526001,1470.142578 1437.394409,1465.086792 1464.244995,1469.111938 
	C1474.915405,1470.711792 1485.023804,1473.943726 1494.002197,1480.081909 
	C1505.938232,1488.241943 1510.830444,1500.124023 1506.811768,1513.985718 
	C1504.909302,1520.547485 1501.005127,1526.562988 1497.723022,1532.672974 
	C1496.484253,1534.979004 1494.239502,1536.722534 1492.800781,1538.947144 
	C1486.527466,1548.646729 1491.118530,1559.625244 1502.397705,1562.033203 
	C1510.156494,1563.689453 1516.884766,1561.466309 1522.790527,1556.382446 
	C1532.671997,1547.875732 1539.202148,1537.237793 1542.835938,1524.768188 
	C1551.959351,1493.461426 1541.606079,1467.569580 1512.934082,1452.174683 
	C1504.521606,1447.657715 1495.281250,1444.031982 1485.983521,1441.929565 
	C1451.272583,1434.080811 1417.105835,1436.687134 1383.958984,1449.857300 
	C1370.564575,1455.179321 1358.384155,1462.535889 1347.771240,1472.544067 
	C1323.080688,1495.827515 1323.435425,1541.312134 1349.278076,1565.048950 
	C1361.202393,1576.001343 1374.414551,1584.827026 1388.192993,1592.856567 
	C1407.756714,1604.257568 1427.968506,1614.544678 1447.569458,1625.884644 
	C1457.902466,1631.862671 1468.498413,1637.990601 1477.278442,1645.928345 
	C1498.575073,1665.181763 1496.657471,1697.128906 1474.127563,1714.916382 
	C1465.291992,1721.892212 1455.094360,1725.849487 1444.172852,1727.962891 
	C1424.332397,1731.802368 1404.311157,1732.298950 1384.590576,1728.055420 
	C1374.655273,1725.917603 1365.269531,1721.226196 1354.403687,1716.889038 
M952.728882,1954.997192 
	C952.736938,1964.661499 952.784424,1974.326050 952.735535,1983.989990 
	C952.712891,1988.462280 954.197632,1990.987671 959.917358,1989.700928 
	C960.091492,1986.392456 960.396118,1983.137939 960.410706,1979.882080 
	C960.468689,1966.885376 960.897766,1953.866577 960.291748,1940.898071 
	C959.806885,1930.523560 965.277161,1924.607910 973.518555,1920.634644 
	C984.573120,1915.305176 995.529907,1921.024292 997.732910,1933.050171 
	C998.506836,1937.275391 998.508606,1941.673950 998.545044,1945.996094 
	C998.651978,1958.659058 998.634521,1971.323242 998.589294,1983.986694 
	C998.573486,1988.432007 999.875366,1991.115112 1005.870056,1989.514038 
	C1006.045410,1986.052612 1006.354370,1982.481079 1006.384521,1978.907104 
	C1006.496887,1965.578735 1006.023071,1952.223877 1006.716919,1938.928345 
	C1007.367126,1926.468872 1016.113892,1918.459229 1027.214844,1918.734619 
	C1037.712891,1918.995117 1044.008179,1926.010376 1045.190674,1938.824097 
	C1045.343384,1940.479492 1045.337524,1942.152832 1045.341797,1943.817993 
	C1045.361572,1951.482788 1045.361206,1959.147705 1045.364014,1966.812500 
	C1045.366699,1974.401123 1045.364624,1981.989624 1045.364624,1989.156128 
	C1050.015503,1991.122192 1052.480225,1990.439087 1052.462280,1986.146606 
	C1052.388794,1968.491211 1052.735962,1950.806885 1051.799561,1933.193359 
	C1051.312256,1924.026245 1045.896851,1916.931885 1036.632202,1913.950439 
	C1027.003052,1910.851807 1018.161987,1912.573975 1010.576904,1919.394531 
	C1008.200012,1921.531616 1006.232239,1924.124023 1004.010498,1926.581787 
	C990.049988,1908.467041 983.425598,1907.995361 961.192566,1923.113647 
	C958.157898,1920.948853 961.734436,1913.529907 954.448486,1914.479370 
	C953.963562,1915.349976 953.104797,1916.179932 953.091614,1917.023071 
	C952.903687,1929.014038 952.830139,1941.006836 952.728882,1954.997192 
M1287.710693,1907.423706 
	C1280.593262,1893.836060 1269.367554,1884.483887 1254.416016,1883.013428 
	C1237.377686,1881.337646 1220.047974,1882.625732 1202.392578,1882.625732 
	C1202.392578,1918.319824 1202.392578,1953.830200 1202.392578,1990.652710 
	C1220.401001,1990.177002 1238.091064,1992.596313 1255.440063,1989.249023 
	C1273.076660,1985.846069 1285.133545,1974.714722 1290.735596,1957.448486 
	C1296.066162,1941.019653 1295.618164,1924.697876 1287.710693,1907.423706 
M764.247009,1959.069824 
	C764.363892,1952.560669 764.480713,1946.051514 764.615601,1938.541992 
	C787.788086,1938.509399 809.546082,1938.300537 832.396118,1938.656372 
	C832.396118,1943.717285 832.394836,1947.314575 832.396301,1950.911743 
	C832.400696,1961.909668 832.494324,1972.908447 832.372742,1983.905029 
	C832.315125,1989.118774 834.102539,1991.365234 839.801514,1989.417114 
	C840.013489,1986.638550 840.384705,1984.010376 840.388367,1981.381714 
	C840.429626,1951.387451 840.417419,1921.393311 840.408325,1891.399048 
	C840.407837,1889.734741 840.455750,1888.050171 840.228394,1886.410034 
	C839.590881,1881.811523 836.852661,1881.458984 831.963867,1883.013916 
	C831.963867,1899.236938 831.963867,1915.377808 831.963867,1931.575928 
	C808.902893,1931.575928 787.106995,1931.575928 764.248047,1931.575928 
	C764.248047,1927.235474 764.248962,1923.636719 764.247864,1920.038086 
	C764.244507,1909.373413 764.159363,1898.708008 764.269043,1888.044556 
	C764.328003,1882.315918 761.507202,1881.375488 756.636841,1882.642822 
	C756.636841,1918.511475 756.636841,1953.979980 756.636841,1990.018066 
	C759.451050,1989.851318 761.593750,1989.724365 764.247009,1989.567139 
	C764.247009,1979.666992 764.247009,1970.353394 764.247009,1959.069824 
M1538.680542,1964.950439 
	C1538.710693,1971.945557 1538.551147,1978.950928 1538.929810,1985.927124 
	C1539.006104,1987.331055 1541.124390,1988.624146 1542.300903,1989.968262 
	C1543.492676,1988.728516 1544.838745,1987.597778 1545.821411,1986.209839 
	C1546.458862,1985.309204 1546.565918,1984.032837 1547.072021,1982.405640 
	C1548.736572,1983.580566 1549.810425,1984.309326 1550.853638,1985.079590 
	C1568.910156,1998.411865 1591.941406,1991.862549 1599.882568,1970.835815 
	C1603.705078,1960.714478 1604.427490,1950.215454 1602.458496,1939.395264 
	C1597.925659,1914.485107 1575.462036,1904.788086 1554.438354,1918.903809 
	C1552.455322,1920.235474 1550.292969,1921.300415 1546.169067,1923.657959 
	C1546.169067,1907.331055 1546.169067,1893.199707 1546.169067,1879.629639 
	C1541.625977,1877.779541 1539.490723,1878.611694 1538.973145,1882.037720 
	C1538.627563,1884.325684 1538.695068,1886.686157 1538.693481,1889.014160 
	C1538.675903,1913.665649 1538.681396,1938.317017 1538.680542,1964.950439 
M1887.833618,1982.070435 
	C1888.382935,1984.799072 1888.932251,1987.527832 1889.530273,1990.498047 
	C1896.656006,1989.295044 1895.206299,1984.613403 1895.215698,1981.004150 
	C1895.296265,1950.037720 1895.269897,1919.070801 1895.244629,1888.104126 
	C1895.242676,1885.780762 1895.484741,1883.279663 1894.709473,1881.197754 
	C1894.202148,1879.835693 1892.063354,1879.081299 1889.145142,1876.953369 
	C1888.535645,1881.995361 1887.839966,1885.438354 1887.757690,1888.895874 
	C1887.567627,1896.882935 1887.782837,1904.879883 1887.587036,1912.866699 
	C1887.536987,1914.911621 1886.569092,1916.934082 1885.836792,1919.658813 
	C1883.514526,1918.490479 1882.080811,1917.794434 1880.669678,1917.055542 
	C1860.128052,1906.300781 1838.949829,1915.282593 1832.655029,1937.592285 
	C1829.986572,1947.050293 1830.231201,1956.721680 1831.914795,1966.323242 
	C1836.113159,1990.266235 1860.239258,1999.745483 1879.844116,1985.274048 
	C1882.146240,1983.574707 1884.740234,1982.270874 1887.833618,1982.070435 
M1461.720337,1960.999390 
	C1461.723633,1953.671021 1461.534668,1946.335083 1461.826660,1939.018311 
	C1461.940308,1936.170898 1462.345825,1932.747437 1463.983154,1930.653564 
	C1470.022583,1922.929810 1478.105103,1918.510742 1488.142334,1918.773682 
	C1497.995972,1919.031616 1504.344849,1924.527100 1506.002441,1934.334961 
	C1506.774292,1938.901855 1506.881348,1943.613525 1506.932373,1948.263550 
	C1507.067749,1960.586914 1506.981079,1972.912720 1507.039307,1985.237305 
	C1507.063843,1990.439697 1509.441284,1991.603149 1514.296509,1989.054443 
	C1514.296509,1971.353760 1515.018677,1953.697510 1514.092041,1936.128296 
	C1513.178833,1918.810181 1499.530884,1909.329224 1482.597046,1913.425415 
	C1477.579346,1914.639282 1473.018921,1917.776733 1468.280762,1920.097656 
	C1466.409912,1921.014038 1464.625977,1922.107788 1461.718384,1923.723022 
	C1461.718384,1911.048828 1461.735962,1899.745361 1461.703979,1888.442017 
	C1461.697388,1886.117432 1461.878174,1883.686157 1461.251709,1881.511719 
	C1460.908203,1880.319214 1459.085815,1878.854980 1457.880615,1878.808716 
	C1456.718994,1878.763916 1455.142700,1880.165405 1454.402588,1881.342773 
	C1453.775757,1882.339844 1453.991455,1883.924561 1453.992188,1885.249268 
	C1454.010254,1919.224976 1454.040527,1953.200684 1454.131958,1987.176270 
	C1454.134277,1988.051880 1454.844482,1988.925659 1455.371094,1990.137695 
	C1457.328003,1989.859131 1459.190430,1989.594116 1460.813599,1989.363159 
	C1461.190186,1988.197510 1461.557129,1987.582642 1461.563477,1986.963989 
	C1461.645630,1978.970825 1461.676514,1970.977173 1461.720337,1960.999390 
M1618.889404,1501.682617 
	C1616.699219,1503.681274 1614.122559,1505.392822 1612.387573,1507.729492 
	C1605.867920,1516.509766 1607.299438,1530.510376 1615.087769,1536.696777 
	C1624.716064,1544.344238 1643.696411,1542.635986 1651.581909,1533.161743 
	C1657.888916,1525.584106 1658.751831,1516.707031 1655.294434,1507.859497 
	C1651.881592,1499.126221 1643.881714,1497.164185 1635.531738,1497.683472 
	C1630.360718,1498.004883 1625.280151,1499.782593 1618.889404,1501.682617 
M1085.262573,1973.133911 
	C1081.572876,1966.224121 1079.667725,1958.955444 1080.778442,1949.895020 
	C1099.542603,1949.684570 1118.312012,1949.473999 1136.823242,1949.266357 
	C1139.635742,1928.730225 1127.066284,1913.234741 1108.310791,1912.436157 
	C1093.120361,1911.789307 1080.255981,1920.442749 1075.136475,1934.807251 
	C1071.921021,1943.829346 1071.585205,1953.013672 1073.512817,1962.374023 
	C1079.154297,1989.768433 1109.151489,2001.407227 1131.763672,1984.867676 
	C1133.212646,1983.807861 1134.175415,1982.083252 1135.522827,1980.479126 
	C1131.180908,1976.046875 1128.450073,1980.065186 1125.614624,1981.460327 
	C1110.183228,1989.053467 1096.714233,1986.728394 1085.262573,1973.133911 
M1681.810791,1925.313965 
	C1672.089478,1913.460571 1659.477173,1910.442749 1645.091309,1913.763672 
	C1631.268921,1916.954468 1623.617065,1926.532104 1620.660034,1939.811523 
	C1618.553711,1949.270874 1618.591431,1958.917236 1621.674683,1968.332275 
	C1626.790039,1983.952881 1638.939209,1992.367676 1655.721191,1991.871216 
	C1671.812744,1991.395264 1683.829102,1982.292969 1687.676025,1966.861694 
	C1691.158813,1952.891846 1690.536621,1939.194458 1681.810791,1925.313965 
M910.308533,1989.778564 
	C919.234009,1986.407104 925.546387,1980.278198 928.886047,1971.384644 
	C933.764893,1958.392822 933.871399,1945.248901 928.522766,1932.397461 
	C922.887329,1918.857056 911.881958,1912.754883 897.731750,1912.580566 
	C883.609375,1912.406372 872.348145,1918.162964 866.312256,1931.480103 
	C860.712769,1943.834229 860.552368,1956.765625 864.857056,1969.524292 
	C869.498779,1983.281616 879.628601,1990.618896 893.940308,1991.657837 
	C898.815491,1992.011597 903.808777,1990.737915 910.308533,1989.778564 
M1705.655396,1965.370361 
	C1701.341309,1981.145386 1709.252930,1991.957031 1725.214722,1992.071411 
	C1732.417603,1992.123047 1738.965698,1989.996826 1744.953857,1986.040405 
	C1747.357666,1984.452271 1749.787720,1982.904175 1751.984985,1981.481079 
	C1755.277100,1984.057983 1752.405273,1989.861572 1758.520386,1990.117798 
	C1759.024292,1989.101685 1760.035156,1988.009277 1760.039551,1986.912842 
	C1760.109985,1969.285278 1760.630249,1951.630615 1759.821167,1934.038574 
	C1759.278076,1922.230591 1751.640625,1914.859741 1740.663574,1912.858032 
	C1728.237549,1910.592163 1714.497437,1916.420654 1709.309937,1926.205322 
	C1712.323853,1929.854858 1714.582642,1926.812622 1716.812866,1925.209595 
	C1722.067383,1921.432739 1727.712402,1918.812866 1734.295044,1918.723755 
	C1742.379517,1918.614258 1748.395630,1922.088013 1750.903809,1929.038208 
	C1753.031860,1934.935181 1754.233398,1941.101929 1752.136841,1947.669312 
	C1743.576172,1949.031616 1735.347534,1950.015625 1727.270020,1951.717041 
	C1719.039917,1953.450928 1711.238647,1956.365234 1705.655396,1965.370361 
M1364.068481,1939.559204 
	C1361.773804,1915.959473 1345.521606,1906.090942 1324.422485,1915.645264 
	C1321.138794,1917.132324 1318.112549,1919.316406 1315.244385,1921.536377 
	C1313.900513,1922.576660 1313.216797,1924.469727 1312.131104,1926.133667 
	C1317.603882,1929.998291 1319.955566,1925.079712 1322.980713,1923.381104 
	C1330.932861,1918.916382 1339.115356,1916.481934 1347.582275,1921.086548 
	C1355.751831,1925.528931 1356.521973,1933.687256 1356.292847,1941.927124 
	C1356.240234,1943.817993 1355.717041,1945.695923 1355.338989,1948.018066 
	C1350.348999,1948.630981 1345.669434,1948.786987 1341.204468,1949.847168 
	C1333.500854,1951.676514 1325.559692,1953.236450 1318.397949,1956.432495 
	C1309.397949,1960.449097 1306.389038,1967.748535 1308.014282,1976.897217 
	C1309.478638,1985.139771 1316.177002,1990.994263 1325.591064,1991.942017 
	C1333.821411,1992.770630 1341.405884,1990.718018 1348.331909,1986.191895 
	C1350.716797,1984.633423 1353.149536,1983.148315 1355.260498,1981.818604 
	C1359.128296,1983.973633 1355.996460,1991.327271 1364.094360,1989.624756 
	C1364.094360,1973.717773 1364.094360,1957.574951 1364.068481,1939.559204 
M1429.715210,1982.368530 
	C1438.383911,1966.260132 1434.583984,1956.158936 1417.426880,1949.901611 
	C1413.372559,1948.423096 1409.201050,1947.266235 1405.144165,1945.793945 
	C1402.658691,1944.891968 1400.111450,1943.950195 1397.898804,1942.543579 
	C1390.130859,1937.605347 1389.710815,1928.275146 1397.064941,1922.668457 
	C1403.032959,1918.118530 1409.908569,1917.391235 1416.974976,1919.360107 
	C1420.137817,1920.241089 1423.010986,1922.137085 1426.159058,1923.106445 
	C1427.636597,1923.561279 1429.453491,1922.913818 1431.116577,1922.765869 
	C1431.688354,1921.861938 1432.260132,1920.958130 1432.831909,1920.054321 
	C1430.865845,1918.974365 1428.911011,1917.873535 1426.932007,1916.817871 
	C1418.306763,1912.217896 1409.304810,1911.093506 1399.940063,1914.123535 
	C1390.761230,1917.093262 1384.689575,1924.408203 1384.262085,1932.797485 
	C1383.854980,1940.786255 1388.671753,1947.070557 1398.656372,1950.963013 
	C1404.528809,1953.252441 1410.688599,1954.815186 1416.526489,1957.180542 
	C1424.370239,1960.358643 1427.517578,1964.947388 1426.918945,1971.221069 
	C1426.248169,1978.249878 1421.162842,1984.025513 1413.675415,1985.640259 
	C1406.641968,1987.156982 1399.799927,1986.407471 1393.419922,1982.744019 
	C1390.947632,1981.324219 1388.381348,1980.068115 1385.639038,1978.621826 
	C1384.332275,1984.615845 1384.332153,1984.615967 1389.075439,1987.437256 
	C1401.749146,1994.976074 1417.082886,1993.464722 1429.715210,1982.368530 
M1784.626343,1918.428711 
	C1784.589111,1929.399536 1784.533936,1940.370483 1784.519653,1951.341309 
	C1784.505493,1962.312744 1784.575317,1973.284424 1784.520508,1984.255493 
	C1784.497559,1988.853882 1786.172852,1991.137207 1791.948120,1989.689453 
	C1792.115967,1986.171387 1792.410278,1982.615234 1792.432617,1979.057495 
	C1792.503418,1967.753906 1792.184814,1956.440552 1792.549805,1945.148071 
	C1793.077515,1928.825195 1803.184082,1919.772461 1819.526367,1920.381470 
	C1820.785645,1920.428467 1822.052856,1920.261230 1823.281006,1920.195435 
	C1823.486694,1913.921143 1823.318604,1913.327515 1819.661377,1912.748413 
	C1811.921143,1911.522705 1805.195068,1913.786011 1799.628052,1919.303345 
	C1797.608887,1921.304565 1795.748291,1923.465820 1792.928955,1926.511841 
	C1792.262085,1922.402832 1792.349365,1919.354980 1791.223389,1916.853149 
	C1789.590454,1913.224731 1787.058716,1912.774536 1784.626343,1918.428711 
z"/>
<path fill="#D3AE37" opacity="1.000000" stroke="none" 
	d="
M1515.137573,785.458496 
	C1515.138062,736.967773 1515.138062,689.404419 1515.138062,641.200073 
	C1546.633423,641.200073 1576.819336,641.200073 1608.338745,641.200073 
	C1608.580078,645.352905 1609.029419,649.502808 1609.031616,653.653015 
	C1609.073730,731.976562 1609.276367,810.301331 1608.812012,888.622131 
	C1608.748901,899.269897 1612.096924,906.453796 1619.536255,913.769226 
	C1689.878296,982.939575 1759.865356,1052.470947 1830.019897,1121.832275 
	C1832.847168,1124.627319 1836.322754,1126.766602 1838.992432,1128.823120 
	C1834.577759,1137.115723 1774.276367,1198.981079 1765.289307,1205.308350 
	C1605.060059,1045.608032 1444.834595,885.911377 1283.613403,725.222473 
	C1123.508179,885.413452 963.405090,1045.602295 804.174683,1204.917969 
	C779.020447,1179.921875 754.306274,1155.363159 729.141174,1130.356323 
	C730.049500,1129.300415 731.612549,1127.224365 733.432068,1125.404785 
	C914.659119,944.167236 1095.903320,762.946838 1277.159058,581.737915 
	C1285.421387,573.477661 1286.075928,573.517578 1294.745117,582.103821 
	C1364.601562,651.292603 1434.444580,720.494995 1504.309326,789.675354 
	C1507.038330,792.377502 1509.946777,794.898254 1514.455811,799.056824 
	C1514.762939,793.344727 1514.949951,789.865295 1515.137573,785.458496 
z"/>
<path fill="#D3AE37" opacity="1.000000" stroke="none" 
	d="
M1186.216919,1074.000000 
	C1186.216919,1039.089722 1186.216919,1005.179382 1186.216919,971.566284 
	C1194.119385,969.103638 1370.452637,968.329468 1384.282959,970.411804 
	C1386.312866,977.428589 1387.033447,1294.397827 1385.051514,1308.487793 
	C1378.053955,1310.541626 1202.300049,1311.298706 1187.865479,1309.337158 
	C1187.645264,1309.087280 1187.409180,1308.849365 1187.209351,1308.584106 
	C1187.015015,1308.326416 1186.706421,1308.041138 1186.705811,1307.767334 
	C1186.528076,1230.178223 1186.372803,1152.589111 1186.216919,1074.000000 
z"/>
<path fill="#D0AC37" opacity="1.000000" stroke="none" 
	d="
M1749.362671,1615.350464 
	C1745.658081,1618.621216 1741.305908,1621.396484 1738.359253,1625.247314 
	C1724.801025,1642.965942 1711.324707,1660.766479 1698.490112,1679.009644 
	C1693.755859,1685.738892 1691.090942,1693.891357 1687.041016,1701.148438 
	C1684.984009,1704.834961 1682.552734,1708.832031 1679.226074,1711.180908 
	C1672.567505,1715.881958 1663.597778,1713.614380 1658.999878,1706.895142 
	C1657.513306,1704.722900 1656.403809,1702.292725 1654.721436,1699.258423 
	C1651.636597,1701.045288 1648.823242,1702.681030 1646.004395,1704.307007 
	C1634.190796,1711.121460 1621.569946,1714.727783 1607.828369,1714.178467 
	C1585.318848,1713.278320 1568.899780,1697.334351 1568.100464,1674.736328 
	C1567.819824,1666.802979 1568.036133,1658.583862 1569.795410,1650.900635 
	C1573.799194,1633.413940 1578.423828,1616.029663 1583.780518,1598.911743 
	C1586.022461,1591.747559 1590.262573,1585.029785 1594.496826,1578.714233 
	C1599.566284,1571.152832 1608.889282,1568.425537 1617.482178,1570.821289 
	C1626.699951,1573.391235 1628.747803,1578.346924 1625.076172,1587.244873 
	C1619.497681,1600.763794 1613.937988,1614.318848 1609.180298,1628.137329 
	C1606.268555,1636.594482 1604.386963,1645.495117 1602.960693,1654.344482 
	C1601.966064,1660.515869 1601.782959,1667.032104 1602.563965,1673.227051 
	C1603.828613,1683.259155 1610.147217,1687.820312 1620.149658,1686.344604 
	C1634.185791,1684.273926 1644.116943,1675.201660 1653.096191,1665.214722 
	C1655.030640,1663.063110 1655.080688,1658.957397 1655.438965,1655.690430 
	C1657.996826,1632.369507 1663.844727,1609.852661 1671.863037,1587.871216 
	C1673.221313,1584.147949 1674.892822,1580.434570 1677.054932,1577.132690 
	C1680.591064,1571.732910 1685.903320,1569.182495 1692.424438,1569.498413 
	C1699.939819,1569.862305 1704.755493,1575.250488 1703.949707,1582.747559 
	C1703.634155,1585.684448 1702.458374,1588.527222 1701.694458,1591.418213 
	C1698.121704,1604.937134 1694.499756,1618.443481 1691.032959,1631.989746 
	C1690.308472,1634.820923 1690.166382,1637.801270 1691.169067,1641.538086 
	C1692.658936,1639.743042 1694.246826,1638.019897 1695.622314,1636.140991 
	C1704.275513,1624.321045 1712.158081,1611.838013 1721.729248,1600.819824 
	C1729.512817,1591.859863 1738.761841,1583.893433 1748.406616,1576.935913 
	C1754.084473,1572.839966 1761.623657,1570.242920 1768.638550,1569.300903 
	C1784.545532,1567.165039 1795.004395,1578.803467 1791.460327,1594.365112 
	C1788.654907,1606.683105 1784.647949,1618.733154 1781.021973,1630.856812 
	C1777.777222,1641.706421 1774.072021,1652.424194 1771.059937,1663.335327 
	C1769.321899,1669.631348 1767.476685,1676.161011 1770.433228,1683.911133 
	C1773.963867,1683.236572 1777.892700,1683.450195 1780.692749,1681.776245 
	C1790.360596,1675.995850 1799.946533,1669.963379 1808.865356,1663.117188 
	C1811.479248,1661.110474 1812.311646,1656.184326 1813.041870,1652.417969 
	C1818.604004,1623.732056 1834.236816,1601.737305 1857.610840,1584.903809 
	C1870.110596,1575.901855 1884.267456,1571.463867 1899.615845,1570.582886 
	C1908.056885,1570.098633 1915.688354,1571.244995 1920.226562,1579.947021 
	C1922.700317,1579.778442 1924.985474,1579.519165 1927.274048,1579.483765 
	C1940.961548,1579.271362 1946.462769,1585.755249 1943.425415,1598.933960 
	C1938.712036,1619.385864 1933.761230,1639.782837 1928.911499,1660.203369 
	C1926.833008,1668.955200 1924.683960,1677.691284 1922.724731,1686.469727 
	C1922.182373,1688.899048 1922.205933,1691.454956 1921.812500,1695.619385 
	C1925.620361,1693.077271 1928.042114,1691.507568 1930.415649,1689.867676 
	C1939.458496,1683.619507 1948.276367,1677.010376 1957.608887,1671.231567 
	C1962.144653,1668.422729 1963.853394,1665.304810 1964.155273,1660.072021 
	C1967.069580,1609.561035 1977.065918,1560.357422 1992.272461,1512.176636 
	C1999.031494,1490.761108 2007.927368,1470.241089 2021.785400,1452.423218 
	C2028.270142,1444.085327 2035.799927,1436.317749 2043.900879,1429.540894 
	C2053.898193,1421.177490 2066.091064,1417.527466 2079.278076,1418.138550 
	C2096.545166,1418.938721 2109.168457,1430.328003 2110.076660,1447.548828 
	C2110.522217,1455.998169 2109.180664,1464.887695 2106.858643,1473.070190 
	C2100.590576,1495.160156 2088.730957,1514.503540 2074.906250,1532.632080 
	C2056.644043,1556.579590 2035.330688,1577.700928 2013.034668,1597.808105 
	C2007.248779,1603.025879 2003.549561,1608.556885 2002.859009,1616.351074 
	C2002.175415,1624.065308 1999.458984,1631.586914 1999.526367,1639.376587 
	C2000.228638,1639.673584 2000.930908,1639.970581 2001.633301,1640.267578 
	C2003.669556,1637.432861 2005.782593,1634.649780 2007.729858,1631.755249 
	C2023.426758,1608.421753 2043.257080,1589.491943 2067.596436,1575.324341 
	C2074.982178,1571.025513 2082.752441,1567.906616 2091.366211,1569.944702 
	C2095.771973,1570.987305 2100.173828,1572.948120 2103.972656,1575.422485 
	C2108.471680,1578.353271 2110.340332,1583.226074 2109.190430,1588.576538 
	C2108.146484,1593.435913 2106.775879,1598.291992 2104.924561,1602.898682 
	C2098.464844,1618.973145 2091.405273,1634.813843 2085.246338,1650.999268 
	C2082.186768,1659.039795 2080.069336,1667.540527 2078.497070,1676.013428 
	C2077.212891,1682.933228 2080.502197,1685.419067 2087.180420,1683.153931 
	C2091.563721,1681.667114 2095.896729,1679.663940 2099.790039,1677.170044 
	C2111.282471,1669.808594 2122.576172,1662.134155 2133.885986,1654.491089 
	C2141.219238,1649.535522 2146.064209,1650.814453 2149.652832,1658.855103 
	C2153.887695,1668.343994 2152.319092,1677.099243 2143.985107,1682.903320 
	C2122.754150,1697.689209 2100.218262,1709.750610 2073.965332,1712.938232 
	C2054.718262,1715.275024 2043.803345,1705.985229 2044.335571,1686.425171 
	C2044.576416,1677.575195 2046.582031,1668.568726 2049.135498,1660.036743 
	C2052.566895,1648.571777 2057.353516,1637.515625 2061.446777,1626.243408 
	C2062.644775,1622.944092 2063.463623,1619.506958 2064.456543,1616.133057 
	C2063.876709,1615.621094 2063.296875,1615.109009 2062.717285,1614.597046 
	C2059.785645,1616.336060 2056.512939,1617.680786 2053.975830,1619.875610 
	C2029.740479,1640.839355 2009.364258,1664.720825 1997.845215,1695.187134 
	C1996.785767,1697.989258 1995.484497,1700.698853 1994.359375,1703.477173 
	C1991.862915,1709.641968 1987.399536,1713.058350 1980.690918,1713.435913 
	C1973.961060,1713.814575 1969.110596,1711.078247 1966.273071,1704.884399 
	C1965.865356,1703.994385 1965.236084,1703.205933 1964.358398,1701.813965 
	C1962.323242,1702.566528 1960.094727,1703.057129 1958.208130,1704.142456 
	C1946.367065,1710.956543 1934.688232,1718.056885 1922.771484,1724.733765 
	C1917.664551,1727.595215 1915.561523,1731.735840 1913.999146,1737.198608 
	C1908.235596,1757.350708 1902.447388,1777.529785 1895.587769,1797.324219 
	C1889.670410,1814.400146 1878.735596,1828.216064 1863.886963,1838.782837 
	C1849.630615,1848.928467 1833.916748,1852.894409 1816.580688,1850.260864 
	C1798.588989,1847.527954 1789.100220,1836.312378 1791.474854,1818.280518 
	C1792.526001,1810.298584 1795.584717,1801.933105 1799.937622,1795.158813 
	C1811.690186,1776.868408 1826.010254,1760.597290 1843.426514,1747.316284 
	C1855.881836,1737.817993 1868.193848,1728.107544 1880.998169,1719.100342 
	C1888.541382,1713.794312 1890.066406,1706.891602 1889.696411,1698.358154 
	C1849.659912,1719.486206 1839.587524,1718.646362 1815.604492,1693.077148 
	C1804.281860,1698.481445 1793.471436,1704.455200 1782.042480,1708.803467 
	C1774.727539,1711.586670 1766.513672,1713.086426 1758.677979,1713.184692 
	C1744.671875,1713.360596 1736.718262,1706.176880 1735.520874,1692.249146 
	C1734.821167,1684.108887 1735.447021,1675.500244 1737.372925,1667.562378 
	C1741.373413,1651.073486 1746.637085,1634.891235 1751.515381,1617.379395 
	C1750.887085,1615.900879 1750.124878,1615.625732 1749.362671,1615.350464 
M1875.722412,1610.626099 
	C1865.034912,1619.478638 1856.577881,1630.095093 1850.969727,1642.805420 
	C1847.008301,1651.783447 1844.954102,1661.182373 1846.991699,1671.036621 
	C1849.193604,1681.684692 1854.767822,1685.552734 1865.633789,1684.190308 
	C1873.695190,1683.179810 1880.547974,1679.355469 1884.799561,1672.755127 
	C1889.794678,1665.000610 1894.496216,1656.730103 1897.421021,1648.042358 
	C1902.297729,1633.556274 1905.692993,1618.568848 1909.609131,1603.765381 
	C1909.992798,1602.314941 1909.660645,1600.674927 1909.660645,1598.570923 
	C1896.853760,1598.254883 1886.441284,1602.723877 1875.722412,1610.626099 
M2055.780762,1512.729370 
	C2061.364014,1501.772095 2067.429688,1491.024292 2072.320068,1479.765991 
	C2074.635010,1474.436646 2075.376953,1468.156372 2075.602051,1462.260010 
	C2075.839111,1456.053101 2072.136963,1453.355469 2065.924072,1453.709595 
	C2059.809082,1454.058105 2054.885986,1457.230713 2051.574463,1461.852051 
	C2045.784058,1469.932861 2039.997070,1478.200439 2035.646851,1487.093506 
	C2023.881348,1511.145386 2016.119385,1536.638306 2010.594604,1562.809570 
	C2010.241699,1564.481201 2010.548706,1566.292114 2010.548706,1570.386841 
	C2028.036865,1551.723755 2042.251831,1533.429810 2055.780762,1512.729370 
M1864.249146,1797.150513 
	C1877.506958,1772.990234 1884.103149,1754.674194 1883.022339,1744.700684 
	C1882.081177,1745.117432 1881.051147,1745.319824 1880.361694,1745.916016 
	C1866.276001,1758.097656 1851.981201,1770.055298 1838.295044,1782.672729 
	C1832.733765,1787.799561 1828.316895,1794.234009 1823.740967,1800.344116 
	C1819.646606,1805.811279 1817.634644,1812.156494 1818.077637,1819.069824 
	C1818.490845,1825.517822 1821.315186,1828.003540 1827.787964,1827.407593 
	C1836.045166,1826.647461 1843.415771,1823.306152 1848.954590,1817.286865 
	C1854.316895,1811.459351 1858.729980,1804.758057 1864.249146,1797.150513 
z"/>
<path fill="#D0AC37" opacity="1.000000" stroke="none" 
	d="
M964.817749,1692.780029 
	C951.692749,1709.130859 934.704285,1715.306030 915.027832,1715.167847 
	C900.975647,1715.069214 889.054382,1709.938599 879.695312,1699.254028 
	C877.973938,1697.288696 876.179504,1695.387451 873.965210,1692.959351 
	C870.996216,1694.938721 868.274719,1696.699829 865.607788,1698.540161 
	C851.566711,1708.228516 836.316833,1714.170044 818.989929,1714.216675 
	C803.186035,1714.259277 791.483643,1707.404663 783.640198,1693.855225 
	C776.966125,1682.326050 774.471680,1669.646606 773.826233,1656.511353 
	C772.536743,1630.269653 776.493042,1604.502808 783.121277,1579.360474 
	C789.732971,1554.280396 797.881836,1529.555054 806.461792,1505.061157 
	C812.990112,1486.424194 822.825867,1469.236450 835.958008,1454.333862 
	C841.856079,1447.640747 848.603943,1441.530029 855.686218,1436.092773 
	C863.204956,1430.320679 872.154907,1427.524414 881.821167,1427.391113 
	C898.690430,1427.158447 910.724304,1437.596436 911.446045,1454.461426 
	C911.768738,1462.002319 910.456726,1469.746216 908.946289,1477.207642 
	C904.197144,1500.668823 894.448608,1522.181519 882.052185,1542.514771 
	C863.012634,1573.744385 840.409790,1602.025879 812.064819,1625.391357 
	C808.171814,1628.600708 805.812683,1632.032471 805.866455,1637.178223 
	C805.953308,1645.491089 805.502747,1653.819214 805.862976,1662.115479 
	C806.032837,1666.027710 807.133850,1670.044312 808.551575,1673.729248 
	C812.041870,1682.801147 818.370544,1687.282715 827.947266,1685.888672 
	C834.686462,1684.907837 841.335510,1682.175781 847.572510,1679.258423 
	C852.007141,1677.184204 855.627014,1673.411133 859.721680,1670.555542 
	C864.535645,1667.198120 866.001892,1662.746338 866.155212,1656.898560 
	C866.884216,1629.094116 878.281555,1606.030518 898.620483,1587.340698 
	C910.001282,1576.882812 923.385681,1570.981323 938.981995,1569.500000 
	C967.509583,1566.790527 988.139465,1589.283691 986.944824,1616.917480 
	C986.802673,1620.206055 986.468689,1623.486450 986.157227,1627.660889 
	C988.776184,1627.543823 991.039001,1627.876953 993.005371,1627.262207 
	C996.805054,1626.074097 1000.466187,1624.417725 1004.134155,1622.837891 
	C1016.151184,1617.662354 1023.180725,1610.104370 1025.138550,1595.638184 
	C1029.566284,1562.921387 1038.217041,1531.010132 1050.346436,1500.167847 
	C1058.493896,1479.450684 1069.582275,1460.626343 1085.938843,1445.253052 
	C1098.330444,1433.606323 1112.751709,1426.817139 1130.124023,1427.408936 
	C1144.730591,1427.906738 1154.605225,1435.933228 1157.802734,1450.162964 
	C1159.964355,1459.782715 1159.838745,1469.509399 1156.717163,1478.817993 
	C1153.443481,1488.579102 1149.823975,1498.309326 1145.342773,1507.562622 
	C1136.159302,1526.526123 1124.853271,1544.301636 1110.982178,1560.164551 
	C1093.445679,1580.219238 1075.174927,1599.631104 1057.328247,1619.417114 
	C1055.398315,1621.556763 1053.191650,1624.190186 1052.795166,1626.845581 
	C1050.681274,1641.006226 1049.074463,1655.243530 1047.393921,1669.466187 
	C1047.264893,1670.558350 1047.920654,1671.743164 1048.664307,1674.661377 
	C1051.325806,1670.676392 1053.188477,1668.109985 1054.822266,1665.405273 
	C1066.730957,1645.691406 1079.073975,1626.208740 1095.034912,1609.512817 
	C1103.729736,1600.417480 1113.430542,1592.136475 1123.444702,1584.493164 
	C1132.549438,1577.544067 1143.346802,1573.818115 1154.959106,1572.926758 
	C1176.629761,1571.263550 1190.055420,1585.203979 1187.212036,1606.797241 
	C1184.910400,1624.277100 1174.256348,1636.241699 1160.606567,1646.191284 
	C1153.893555,1651.084839 1146.968262,1655.845947 1141.031128,1661.589233 
	C1137.097412,1665.394165 1133.972412,1670.515137 1131.862305,1675.616577 
	C1128.395996,1683.996826 1132.073730,1689.047119 1141.236816,1689.772461 
	C1148.846924,1690.374634 1155.715332,1687.864868 1162.164795,1684.158081 
	C1173.552368,1677.613037 1183.251221,1669.025757 1191.791260,1659.095093 
	C1193.094604,1657.579590 1194.364868,1656.029907 1195.561279,1654.429443 
	C1198.583130,1650.386963 1201.356567,1645.812988 1207.618164,1648.151489 
	C1212.613037,1650.016724 1216.897583,1658.243286 1215.455933,1664.078369 
	C1214.681519,1667.212280 1213.092896,1670.365967 1211.133057,1672.950562 
	C1197.093628,1691.464966 1179.055542,1704.797119 1157.413818,1713.128296 
	C1147.123901,1717.089478 1136.525391,1717.015137 1125.988770,1713.852783 
	C1104.465210,1707.392944 1095.383301,1686.293213 1105.565796,1666.109741 
	C1110.144897,1657.033325 1117.022827,1649.798706 1124.969482,1643.542236 
	C1130.729370,1639.007080 1136.642456,1634.641113 1142.128418,1629.793457 
	C1145.064453,1627.199219 1147.879517,1624.048706 1149.533691,1620.571167 
	C1150.620605,1618.286255 1150.426758,1614.420776 1149.120605,1612.302612 
	C1148.214600,1610.833496 1144.327271,1610.408203 1141.965332,1610.772217 
	C1132.719116,1612.197021 1125.352905,1617.401978 1118.720459,1623.659302 
	C1106.767700,1634.936035 1097.052856,1647.984375 1088.083740,1661.724487 
	C1080.994629,1672.584473 1073.147827,1682.962402 1065.366089,1693.351196 
	C1062.588867,1697.058838 1059.187012,1700.358032 1055.752563,1703.495850 
	C1052.819458,1706.175537 1049.632812,1708.703125 1046.208618,1710.697632 
	C1032.494629,1718.686157 1022.288330,1714.934204 1019.519287,1699.502441 
	C1017.424133,1687.826416 1017.936401,1675.666260 1017.510315,1663.713623 
	C1017.266357,1656.870728 1017.466064,1650.012085 1017.466064,1642.924316 
	C1005.986084,1647.550659 994.848572,1651.751099 984.022583,1656.641357 
	C981.822998,1657.635010 980.550842,1661.103271 979.273865,1663.643188 
	C974.508423,1673.121826 969.918701,1682.688721 964.817749,1692.780029 
M923.769836,1604.472656 
	C904.505371,1622.427856 896.741943,1644.592651 901.480225,1670.347412 
	C904.373291,1686.072632 920.807312,1692.388428 933.926270,1683.386841 
	C945.389526,1675.521118 951.659241,1664.072754 954.329834,1650.318604 
	C951.286865,1648.246948 948.781555,1646.675659 946.421204,1644.910400 
	C938.180176,1638.746460 936.200867,1631.491943 940.571777,1622.146362 
	C942.101196,1618.876221 944.241943,1615.783447 946.603882,1613.040649 
	C949.097290,1610.145386 950.313538,1606.939453 947.930115,1604.091675 
	C946.023987,1601.814331 942.587463,1599.179810 940.065491,1599.399780 
	C934.957886,1599.845581 930.009888,1602.119751 923.769836,1604.472656 
M814.434387,1575.465820 
	C813.445801,1581.163940 812.457214,1586.862183 811.468628,1592.560303 
	C815.065796,1591.584473 817.049255,1590.003662 818.633606,1588.092041 
	C836.508606,1566.522949 852.399780,1543.568604 864.982544,1518.528564 
	C869.875244,1508.791870 873.498474,1498.346436 876.904175,1487.962891 
	C878.631409,1482.696655 879.178955,1476.851562 879.192505,1471.265625 
	C879.207947,1464.909302 875.249207,1461.675537 869.315918,1463.804688 
	C864.250305,1465.622314 858.719360,1468.728027 855.625732,1472.913452 
	C849.360596,1481.390015 843.786194,1490.607666 839.392700,1500.191650 
	C828.563965,1523.813721 820.805359,1548.557373 814.434387,1575.465820 
M1098.418091,1535.414062 
	C1103.075317,1528.527954 1108.533813,1522.039062 1112.194458,1514.658691 
	C1117.180542,1504.606323 1121.078491,1493.974365 1124.840698,1483.376953 
	C1126.124146,1479.761353 1126.086304,1475.460327 1125.772705,1471.542725 
	C1125.235840,1464.832520 1121.189941,1461.715942 1114.837280,1463.863892 
	C1110.315186,1465.393066 1105.473267,1468.090454 1102.521240,1471.696777 
	C1096.883667,1478.583374 1091.719971,1486.102295 1087.727783,1494.046387 
	C1075.118896,1519.137085 1066.412964,1545.652344 1060.882690,1573.188965 
	C1060.463623,1575.275146 1060.582886,1577.469360 1060.451904,1579.613403 
	C1074.389526,1566.226929 1086.270996,1551.637939 1098.418091,1535.414062 
z"/>
<path fill="#D0AC37" opacity="1.000000" stroke="none" 
	d="
M535.912842,1732.059204 
	C504.180908,1719.162964 487.393188,1694.866821 482.191254,1663.033081 
	C473.575989,1610.310913 482.409119,1560.021729 508.791077,1513.458740 
	C539.032104,1460.084717 584.779968,1426.291138 644.498169,1413.353394 
	C694.322327,1402.559204 740.593811,1411.539062 779.998169,1446.196655 
	C782.487854,1448.386353 785.017944,1450.676147 786.927429,1453.349243 
	C791.138855,1459.244751 790.376404,1467.520264 785.556335,1472.739136 
	C780.853149,1477.831299 774.039551,1478.754028 767.334167,1474.777344 
	C761.323303,1471.212280 755.776550,1466.821533 749.628052,1463.538940 
	C696.256287,1435.044312 644.346191,1437.804810 595.525085,1473.455078 
	C553.781982,1503.936890 531.291748,1546.630859 524.262939,1597.350220 
	C522.081543,1613.090942 521.194397,1629.298584 522.182495,1645.138306 
	C525.369446,1696.225342 573.615051,1721.814819 618.644043,1696.993774 
	C629.644897,1690.929810 638.414429,1682.358521 646.027588,1672.524414 
	C657.847168,1657.256714 665.621155,1640.039062 669.946289,1621.301025 
	C679.236023,1581.054199 688.890076,1540.878174 697.251526,1500.436890 
	C700.402344,1485.197266 709.026428,1483.113037 722.212219,1487.847046 
	C732.093994,1491.394531 734.715820,1496.755005 732.392517,1507.396362 
	C722.729431,1551.656494 712.817383,1595.862915 703.293640,1640.152832 
	C700.565674,1652.838989 698.589294,1665.704956 696.763916,1678.558838 
	C695.974976,1684.114502 695.934692,1689.896484 696.456421,1695.491455 
	C697.310669,1704.653076 701.456909,1707.811157 710.622498,1706.363037 
	C714.812195,1705.701172 719.050415,1704.200928 722.802856,1702.207886 
	C727.474304,1699.726685 731.758972,1696.468872 736.044678,1693.320435 
	C743.076599,1688.154663 747.530640,1688.008789 752.819458,1693.092529 
	C758.516602,1698.568848 759.406006,1705.759033 755.105835,1712.064575 
	C754.360107,1713.158081 753.463501,1714.176758 752.506287,1715.093994 
	C737.714294,1729.267578 720.173523,1737.459717 699.610474,1737.730347 
	C679.843567,1737.990601 668.508118,1728.303589 664.754944,1708.942139 
	C663.873535,1704.395142 663.867188,1699.676880 663.489563,1695.034790 
	C663.254089,1692.139771 663.077393,1689.239990 662.718567,1684.119141 
	C659.772766,1687.563965 657.963196,1689.261597 656.652527,1691.282593 
	C649.685181,1702.026367 640.782898,1710.922363 631.000427,1719.083008 
	C605.020874,1740.755005 575.589478,1742.966309 544.255737,1734.751587 
	C541.682190,1734.077026 539.180237,1733.129517 535.912842,1732.059204 
M662.861877,1683.458618 
	C662.861877,1683.458618 663.105835,1682.860474 663.105835,1682.860474 
	C663.105835,1682.860474 662.494812,1683.020386 662.861877,1683.458618 
z"/>
<path fill="#D1AD37" opacity="1.000000" stroke="none" 
	d="
M1355.019531,1717.289307 
	C1365.269531,1721.226196 1374.655273,1725.917603 1384.590576,1728.055420 
	C1404.311157,1732.298950 1424.332397,1731.802368 1444.172852,1727.962891 
	C1455.094360,1725.849487 1465.291992,1721.892212 1474.127563,1714.916382 
	C1496.657471,1697.128906 1498.575073,1665.181763 1477.278442,1645.928345 
	C1468.498413,1637.990601 1457.902466,1631.862671 1447.569458,1625.884644 
	C1427.968506,1614.544678 1407.756714,1604.257568 1388.192993,1592.856567 
	C1374.414551,1584.827026 1361.202393,1576.001343 1349.278076,1565.048950 
	C1323.435425,1541.312134 1323.080688,1495.827515 1347.771240,1472.544067 
	C1358.384155,1462.535889 1370.564575,1455.179321 1383.958984,1449.857300 
	C1417.105835,1436.687134 1451.272583,1434.080811 1485.983521,1441.929565 
	C1495.281250,1444.031982 1504.521606,1447.657715 1512.934082,1452.174683 
	C1541.606079,1467.569580 1551.959351,1493.461426 1542.835938,1524.768188 
	C1539.202148,1537.237793 1532.671997,1547.875732 1522.790527,1556.382446 
	C1516.884766,1561.466309 1510.156494,1563.689453 1502.397705,1562.033203 
	C1491.118530,1559.625244 1486.527466,1548.646729 1492.800781,1538.947144 
	C1494.239502,1536.722534 1496.484253,1534.979004 1497.723022,1532.672974 
	C1501.005127,1526.562988 1504.909302,1520.547485 1506.811768,1513.985718 
	C1510.830444,1500.124023 1505.938232,1488.241943 1494.002197,1480.081909 
	C1485.023804,1473.943726 1474.915405,1470.711792 1464.244995,1469.111938 
	C1437.394409,1465.086792 1412.526001,1470.142578 1390.026855,1485.605591 
	C1377.707031,1494.072632 1371.782837,1505.515869 1374.037598,1520.747070 
	C1375.417358,1530.066895 1379.101440,1538.157104 1386.825928,1543.658447 
	C1395.764771,1550.024658 1404.867065,1556.255981 1414.385010,1561.694336 
	C1434.052979,1572.932373 1454.234253,1583.276978 1473.830200,1594.634399 
	C1485.609985,1601.461792 1496.907104,1609.191528 1508.036133,1617.060303 
	C1547.552246,1644.999878 1544.181152,1708.018066 1506.136230,1735.278320 
	C1492.405396,1745.116699 1477.638184,1752.568115 1461.316895,1756.659668 
	C1426.989258,1765.265381 1392.681152,1764.909912 1358.610474,1755.172729 
	C1344.398193,1751.111206 1331.175049,1744.765015 1319.497559,1735.616333 
	C1297.964966,1718.746704 1289.660278,1696.175293 1292.227295,1669.438599 
	C1293.249146,1658.794434 1298.392578,1649.811890 1306.434448,1642.667603 
	C1312.778076,1637.031860 1320.298950,1634.854858 1328.669678,1635.847412 
	C1336.182129,1636.738159 1340.116577,1641.256104 1339.334351,1648.790771 
	C1338.857788,1653.381104 1337.411987,1657.898804 1336.135864,1662.373535 
	C1329.654663,1685.101318 1335.482300,1702.597534 1355.019531,1717.289307 
z"/>
<path fill="#C3A236" opacity="1.000000" stroke="none" 
	d="
M952.729004,1953.998291 
	C952.830139,1941.006836 952.903687,1929.014038 953.091614,1917.023071 
	C953.104797,1916.179932 953.963562,1915.349976 954.448486,1914.479370 
	C961.734436,1913.529907 958.157898,1920.948853 961.192566,1923.113647 
	C983.425598,1907.995361 990.049988,1908.467041 1004.010498,1926.581787 
	C1006.232239,1924.124023 1008.200012,1921.531616 1010.576904,1919.394531 
	C1018.161987,1912.573975 1027.003052,1910.851807 1036.632202,1913.950439 
	C1045.896851,1916.931885 1051.312256,1924.026245 1051.799561,1933.193359 
	C1052.735962,1950.806885 1052.388794,1968.491211 1052.462280,1986.146606 
	C1052.480225,1990.439087 1050.015503,1991.122192 1045.364624,1989.156128 
	C1045.364624,1981.989624 1045.366699,1974.401123 1045.364014,1966.812500 
	C1045.361206,1959.147705 1045.361572,1951.482788 1045.341797,1943.817993 
	C1045.337524,1942.152832 1045.343384,1940.479492 1045.190674,1938.824097 
	C1044.008179,1926.010376 1037.712891,1918.995117 1027.214844,1918.734619 
	C1016.113892,1918.459229 1007.367126,1926.468872 1006.716919,1938.928345 
	C1006.023071,1952.223877 1006.496887,1965.578735 1006.384521,1978.907104 
	C1006.354370,1982.481079 1006.045410,1986.052612 1005.870056,1989.514038 
	C999.875366,1991.115112 998.573486,1988.432007 998.589294,1983.986694 
	C998.634521,1971.323242 998.651978,1958.659058 998.545044,1945.996094 
	C998.508606,1941.673950 998.506836,1937.275391 997.732910,1933.050171 
	C995.529907,1921.024292 984.573120,1915.305176 973.518555,1920.634644 
	C965.277161,1924.607910 959.806885,1930.523560 960.291748,1940.898071 
	C960.897766,1953.866577 960.468689,1966.885376 960.410706,1979.882080 
	C960.396118,1983.137939 960.091492,1986.392456 959.917358,1989.700928 
	C954.197632,1990.987671 952.712891,1988.462280 952.735535,1983.989990 
	C952.784424,1974.326050 952.736938,1964.661499 952.729004,1953.998291 
z"/>
<path fill="#C8A536" opacity="1.000000" stroke="none" 
	d="
M1288.018799,1908.114380 
	C1295.618164,1924.697876 1296.066162,1941.019653 1290.735596,1957.448486 
	C1285.133545,1974.714722 1273.076660,1985.846069 1255.440063,1989.249023 
	C1238.091064,1992.596313 1220.401001,1990.177002 1202.392578,1990.652710 
	C1202.392578,1953.830200 1202.392578,1918.319824 1202.392578,1882.625732 
	C1220.047974,1882.625732 1237.377686,1881.337646 1254.416016,1883.013428 
	C1269.367554,1884.483887 1280.593262,1893.836060 1288.018799,1908.114380 
M1260.858398,1980.531616 
	C1271.534302,1975.850098 1278.645752,1967.853149 1282.365601,1956.908691 
	C1287.248291,1942.543701 1287.207031,1928.109375 1281.823730,1913.904785 
	C1276.862061,1900.812500 1267.343994,1892.332886 1253.670532,1889.500244 
	C1239.628540,1886.591309 1225.398438,1888.290161 1211.469727,1888.317749 
	C1209.085205,1901.039551 1209.632202,1976.550171 1212.128784,1984.040039 
	C1227.786499,1983.292114 1243.804199,1986.569824 1260.858398,1980.531616 
z"/>
<path fill="#C8A536" opacity="1.000000" stroke="none" 
	d="
M764.247009,1960.054688 
	C764.247009,1970.353394 764.247009,1979.666992 764.247009,1989.567139 
	C761.593750,1989.724365 759.451050,1989.851318 756.636841,1990.018066 
	C756.636841,1953.979980 756.636841,1918.511475 756.636841,1882.642822 
	C761.507202,1881.375488 764.328003,1882.315918 764.269043,1888.044556 
	C764.159363,1898.708008 764.244507,1909.373413 764.247864,1920.038086 
	C764.248962,1923.636719 764.248047,1927.235474 764.248047,1931.575928 
	C787.106995,1931.575928 808.902893,1931.575928 831.963867,1931.575928 
	C831.963867,1915.377808 831.963867,1899.236938 831.963867,1883.013916 
	C836.852661,1881.458984 839.590881,1881.811523 840.228394,1886.410034 
	C840.455750,1888.050171 840.407837,1889.734741 840.408325,1891.399048 
	C840.417419,1921.393311 840.429626,1951.387451 840.388367,1981.381714 
	C840.384705,1984.010376 840.013489,1986.638550 839.801514,1989.417114 
	C834.102539,1991.365234 832.315125,1989.118774 832.372742,1983.905029 
	C832.494324,1972.908447 832.400696,1961.909668 832.396301,1950.911743 
	C832.394836,1947.314575 832.396118,1943.717285 832.396118,1938.656372 
	C809.546082,1938.300537 787.788086,1938.509399 764.615601,1938.541992 
	C764.480713,1946.051514 764.363892,1952.560669 764.247009,1960.054688 
z"/>
<path fill="#C0A036" opacity="1.000000" stroke="none" 
	d="
M1538.680664,1963.959473 
	C1538.681396,1938.317017 1538.675903,1913.665649 1538.693481,1889.014160 
	C1538.695068,1886.686157 1538.627563,1884.325684 1538.973145,1882.037720 
	C1539.490723,1878.611694 1541.625977,1877.779541 1546.169067,1879.629639 
	C1546.169067,1893.199707 1546.169067,1907.331055 1546.169067,1923.657959 
	C1550.292969,1921.300415 1552.455322,1920.235474 1554.438354,1918.903809 
	C1575.462036,1904.788086 1597.925659,1914.485107 1602.458496,1939.395264 
	C1604.427490,1950.215454 1603.705078,1960.714478 1599.882568,1970.835815 
	C1591.941406,1991.862549 1568.910156,1998.411865 1550.853638,1985.079590 
	C1549.810425,1984.309326 1548.736572,1983.580566 1547.072021,1982.405640 
	C1546.565918,1984.032837 1546.458862,1985.309204 1545.821411,1986.209839 
	C1544.838745,1987.597778 1543.492676,1988.728516 1542.301025,1989.968262 
	C1541.124390,1988.624146 1539.006104,1987.331055 1538.929810,1985.927124 
	C1538.551147,1978.950928 1538.710693,1971.945557 1538.680664,1963.959473 
M1594.156006,1937.615112 
	C1590.211792,1916.209839 1564.970459,1913.140259 1551.379639,1927.619019 
	C1547.991577,1931.228516 1546.225098,1935.021240 1546.369507,1940.061890 
	C1546.635620,1949.353271 1546.731812,1958.669189 1546.351196,1967.952393 
	C1546.082031,1974.516235 1549.376953,1978.595703 1554.296265,1981.859741 
	C1567.396606,1990.552002 1585.813599,1985.087158 1591.968262,1970.518677 
	C1596.228149,1960.435913 1596.592041,1949.886841 1594.156006,1937.615112 
z"/>
<path fill="#BE9E35" opacity="1.000000" stroke="none" 
	d="
M1887.516357,1981.427002 
	C1884.740234,1982.270874 1882.146240,1983.574707 1879.844116,1985.274048 
	C1860.239258,1999.745483 1836.113159,1990.266235 1831.914795,1966.323242 
	C1830.231201,1956.721680 1829.986572,1947.050293 1832.655029,1937.592285 
	C1838.949829,1915.282593 1860.128052,1906.300781 1880.669678,1917.055542 
	C1882.080811,1917.794434 1883.514526,1918.490479 1885.836792,1919.658813 
	C1886.569092,1916.934082 1887.536987,1914.911621 1887.587036,1912.866699 
	C1887.782837,1904.879883 1887.567627,1896.882935 1887.757690,1888.895874 
	C1887.839966,1885.438354 1888.535645,1881.995361 1889.145142,1876.953369 
	C1892.063354,1879.081299 1894.202148,1879.835693 1894.709473,1881.197754 
	C1895.484741,1883.279663 1895.242676,1885.780762 1895.244629,1888.104126 
	C1895.269897,1919.070801 1895.296265,1950.037720 1895.215698,1981.004150 
	C1895.206299,1984.613403 1896.656006,1989.295044 1889.530273,1990.498047 
	C1888.932251,1987.527832 1888.382935,1984.799072 1887.516357,1981.427002 
M1886.583984,1929.483032 
	C1879.948486,1919.792114 1870.562256,1917.015747 1859.553101,1919.284912 
	C1848.527710,1921.557251 1842.829956,1929.264893 1840.116089,1939.677368 
	C1837.805420,1948.542603 1838.161987,1957.332397 1839.945679,1966.283325 
	C1844.179810,1987.529541 1865.676636,1989.546753 1877.816528,1980.863770 
	C1884.311279,1976.218384 1888.700684,1970.796753 1887.912598,1961.799683 
	C1887.017578,1951.583496 1887.485474,1941.247803 1886.583984,1929.483032 
z"/>
<path fill="#C3A236" opacity="1.000000" stroke="none" 
	d="
M1461.720459,1961.991455 
	C1461.676514,1970.977173 1461.645630,1978.970825 1461.563477,1986.963989 
	C1461.557129,1987.582642 1461.190186,1988.197510 1460.813599,1989.363159 
	C1459.190430,1989.594116 1457.328003,1989.859131 1455.371094,1990.137695 
	C1454.844482,1988.925659 1454.134277,1988.051880 1454.131958,1987.176270 
	C1454.040527,1953.200684 1454.010254,1919.224976 1453.992188,1885.249268 
	C1453.991455,1883.924561 1453.775757,1882.339844 1454.402588,1881.342773 
	C1455.142700,1880.165405 1456.718994,1878.763916 1457.880615,1878.808716 
	C1459.085815,1878.854980 1460.908203,1880.319214 1461.251709,1881.511719 
	C1461.878174,1883.686157 1461.697388,1886.117432 1461.703979,1888.442017 
	C1461.735962,1899.745361 1461.718384,1911.048828 1461.718384,1923.723022 
	C1464.625977,1922.107788 1466.409912,1921.014038 1468.280762,1920.097656 
	C1473.018921,1917.776733 1477.579346,1914.639282 1482.597046,1913.425415 
	C1499.530884,1909.329224 1513.178833,1918.810181 1514.092041,1936.128296 
	C1515.018677,1953.697510 1514.296509,1971.353760 1514.296509,1989.054443 
	C1509.441284,1991.603149 1507.063843,1990.439697 1507.039307,1985.237305 
	C1506.981079,1972.912720 1507.067749,1960.586914 1506.932373,1948.263550 
	C1506.881348,1943.613525 1506.774292,1938.901855 1506.002441,1934.334961 
	C1504.344849,1924.527100 1497.995972,1919.031616 1488.142334,1918.773682 
	C1478.105103,1918.510742 1470.022583,1922.929810 1463.983154,1930.653564 
	C1462.345825,1932.747437 1461.940308,1936.170898 1461.826660,1939.018311 
	C1461.534668,1946.335083 1461.723633,1953.671021 1461.720459,1961.991455 
z"/>
<path fill="#D0AC37" opacity="1.000000" stroke="none" 
	d="
M1619.524170,1501.294678 
	C1625.280151,1499.782593 1630.360718,1498.004883 1635.531738,1497.683472 
	C1643.881714,1497.164185 1651.881592,1499.126221 1655.294434,1507.859497 
	C1658.751831,1516.707031 1657.888916,1525.584106 1651.581909,1533.161743 
	C1643.696411,1542.635986 1624.716064,1544.344238 1615.087769,1536.696777 
	C1607.299438,1530.510376 1605.867920,1516.509766 1612.387573,1507.729492 
	C1614.122559,1505.392822 1616.699219,1503.681274 1619.524170,1501.294678 
z"/>
<path fill="#BC9D35" opacity="1.000000" stroke="none" 
	d="
M1085.680420,1973.793579 
	C1096.714233,1986.728394 1110.183228,1989.053467 1125.614624,1981.460327 
	C1128.450073,1980.065186 1131.180908,1976.046875 1135.522827,1980.479126 
	C1134.175415,1982.083252 1133.212646,1983.807861 1131.763672,1984.867676 
	C1109.151489,2001.407227 1079.154297,1989.768433 1073.512817,1962.374023 
	C1071.585205,1953.013672 1071.921021,1943.829346 1075.136475,1934.807251 
	C1080.255981,1920.442749 1093.120361,1911.789307 1108.310791,1912.436157 
	C1127.066284,1913.234741 1139.635742,1928.730225 1136.823242,1949.266357 
	C1118.312012,1949.473999 1099.542603,1949.684570 1080.778442,1949.895020 
	C1079.667725,1958.955444 1081.572876,1966.224121 1085.680420,1973.793579 
M1097.145264,1944.362549 
	C1108.008789,1944.362549 1118.872437,1944.362549 1129.634521,1944.362549 
	C1130.422974,1928.047729 1121.258423,1918.217651 1106.709717,1918.380249 
	C1091.934814,1918.545410 1081.455688,1929.299805 1082.520752,1944.362305 
	C1086.671631,1944.362305 1090.932739,1944.362305 1097.145264,1944.362549 
z"/>
<path fill="#C3A236" opacity="1.000000" stroke="none" 
	d="
M1682.217896,1925.923828 
	C1690.536621,1939.194458 1691.158813,1952.891846 1687.676025,1966.861694 
	C1683.829102,1982.292969 1671.812744,1991.395264 1655.721191,1991.871216 
	C1638.939209,1992.367676 1626.790039,1983.952881 1621.674683,1968.332275 
	C1618.591431,1958.917236 1618.553711,1949.270874 1620.660034,1939.811523 
	C1623.617065,1926.532104 1631.268921,1916.954468 1645.091309,1913.763672 
	C1659.477173,1910.442749 1672.089478,1913.460571 1682.217896,1925.923828 
M1649.977905,1985.591675 
	C1670.536865,1987.662842 1679.941528,1975.355835 1681.467529,1957.911865 
	C1682.007202,1951.743530 1681.355103,1945.229736 1679.938354,1939.180176 
	C1676.671387,1925.230957 1666.907349,1918.061279 1653.316162,1918.591431 
	C1640.061157,1919.108521 1630.432129,1927.490967 1628.377563,1941.378906 
	C1627.416260,1947.876587 1627.397827,1954.677734 1628.090332,1961.220947 
	C1629.396362,1973.560181 1635.585083,1982.366699 1649.977905,1985.591675 
z"/>
<path fill="#C3A236" opacity="1.000000" stroke="none" 
	d="
M909.528320,1989.993164 
	C903.808777,1990.737915 898.815491,1992.011597 893.940308,1991.657837 
	C879.628601,1990.618896 869.498779,1983.281616 864.857056,1969.524292 
	C860.552368,1956.765625 860.712769,1943.834229 866.312256,1931.480103 
	C872.348145,1918.162964 883.609375,1912.406372 897.731750,1912.580566 
	C911.881958,1912.754883 922.887329,1918.857056 928.522766,1932.397461 
	C933.871399,1945.248901 933.764893,1958.392822 928.886047,1971.384644 
	C925.546387,1980.278198 919.234009,1986.407104 909.528320,1989.993164 
M903.264709,1919.192261 
	C883.768616,1917.290649 872.287109,1925.863281 870.513428,1945.076294 
	C869.797852,1952.827393 870.702942,1961.102661 872.722229,1968.643555 
	C875.723633,1979.851807 884.996338,1985.687378 896.849792,1985.832275 
	C909.196899,1985.983032 918.099609,1979.943237 922.022827,1968.507446 
	C925.127441,1959.457764 925.104614,1950.117188 923.310730,1940.888428 
	C921.270813,1930.394409 915.783691,1922.489136 903.264709,1919.192261 
z"/>
<path fill="#C3A236" opacity="1.000000" stroke="none" 
	d="
M1705.989746,1964.672363 
	C1711.238647,1956.365234 1719.039917,1953.450928 1727.270020,1951.717041 
	C1735.347534,1950.015625 1743.576172,1949.031616 1752.136841,1947.669312 
	C1754.233398,1941.101929 1753.031860,1934.935181 1750.903809,1929.038208 
	C1748.395630,1922.088013 1742.379517,1918.614258 1734.295044,1918.723755 
	C1727.712402,1918.812866 1722.067383,1921.432739 1716.812866,1925.209595 
	C1714.582642,1926.812622 1712.323853,1929.854858 1709.309937,1926.205322 
	C1714.497437,1916.420654 1728.237549,1910.592163 1740.663574,1912.858032 
	C1751.640625,1914.859741 1759.278076,1922.230591 1759.821167,1934.038574 
	C1760.630249,1951.630615 1760.109985,1969.285278 1760.039551,1986.912842 
	C1760.035156,1988.009277 1759.024292,1989.101685 1758.520386,1990.117798 
	C1752.405273,1989.861572 1755.277100,1984.057983 1751.984985,1981.481079 
	C1749.787720,1982.904175 1747.357666,1984.452271 1744.953857,1986.040405 
	C1738.965698,1989.996826 1732.417603,1992.123047 1725.214722,1992.071411 
	C1709.252930,1991.957031 1701.341309,1981.145386 1705.989746,1964.672363 
M1711.675537,1972.989258 
	C1713.699097,1982.131836 1716.528687,1985.355591 1723.947998,1986.207397 
	C1734.232788,1987.388306 1743.022461,1983.847290 1750.031128,1976.482666 
	C1756.205444,1969.994507 1752.794922,1962.271851 1752.426880,1954.357544 
	C1741.093872,1953.701050 1730.737793,1955.176880 1720.856934,1959.496582 
	C1715.733032,1961.736572 1711.867065,1965.191406 1711.675537,1972.989258 
z"/>
<path fill="#C0A036" opacity="1.000000" stroke="none" 
	d="
M1364.081421,1940.495605 
	C1364.094360,1957.574951 1364.094360,1973.717773 1364.094360,1989.624756 
	C1355.996460,1991.327271 1359.128296,1983.973633 1355.260498,1981.818604 
	C1353.149536,1983.148315 1350.716797,1984.633423 1348.331909,1986.191895 
	C1341.405884,1990.718018 1333.821411,1992.770630 1325.591064,1991.942017 
	C1316.177002,1990.994263 1309.478638,1985.139771 1308.014282,1976.897217 
	C1306.389038,1967.748535 1309.397949,1960.449097 1318.397949,1956.432495 
	C1325.559692,1953.236450 1333.500854,1951.676514 1341.204468,1949.847168 
	C1345.669434,1948.786987 1350.348999,1948.630981 1355.338989,1948.018066 
	C1355.717041,1945.695923 1356.240234,1943.817993 1356.292847,1941.927124 
	C1356.521973,1933.687256 1355.751831,1925.528931 1347.582275,1921.086548 
	C1339.115356,1916.481934 1330.932861,1918.916382 1322.980713,1923.381104 
	C1319.955566,1925.079712 1317.603882,1929.998291 1312.131104,1926.133667 
	C1313.216797,1924.469727 1313.900513,1922.576660 1315.244385,1921.536377 
	C1318.112549,1919.316406 1321.138794,1917.132324 1324.422485,1915.645264 
	C1345.521606,1906.090942 1361.773804,1915.959473 1364.081421,1940.495605 
M1321.915894,1960.788940 
	C1316.726685,1964.219604 1314.022461,1968.806274 1315.334717,1975.187500 
	C1316.437378,1980.548950 1319.553467,1984.419678 1324.884155,1985.635132 
	C1335.884521,1988.143066 1345.553345,1984.770996 1353.113037,1976.830566 
	C1359.435303,1970.190063 1355.895508,1962.134399 1355.730713,1954.257202 
	C1343.595703,1953.899902 1333.194702,1955.473022 1321.915894,1960.788940 
z"/>
<path fill="#C0A036" opacity="1.000000" stroke="none" 
	d="
M1429.231445,1982.947754 
	C1417.082886,1993.464722 1401.749146,1994.976074 1389.075439,1987.437256 
	C1384.332153,1984.615967 1384.332275,1984.615845 1385.639038,1978.621826 
	C1388.381348,1980.068115 1390.947632,1981.324219 1393.419922,1982.744019 
	C1399.799927,1986.407471 1406.641968,1987.156982 1413.675415,1985.640259 
	C1421.162842,1984.025513 1426.248169,1978.249878 1426.918945,1971.221069 
	C1427.517578,1964.947388 1424.370239,1960.358643 1416.526489,1957.180542 
	C1410.688599,1954.815186 1404.528809,1953.252441 1398.656372,1950.963013 
	C1388.671753,1947.070557 1383.854980,1940.786255 1384.262085,1932.797485 
	C1384.689575,1924.408203 1390.761230,1917.093262 1399.940063,1914.123535 
	C1409.304810,1911.093506 1418.306763,1912.217896 1426.932007,1916.817871 
	C1428.911011,1917.873535 1430.865845,1918.974365 1432.831909,1920.054321 
	C1432.260132,1920.958130 1431.688354,1921.861938 1431.116577,1922.765869 
	C1429.453491,1922.913818 1427.636597,1923.561279 1426.159058,1923.106445 
	C1423.010986,1922.137085 1420.137817,1920.241089 1416.974976,1919.360107 
	C1409.908569,1917.391235 1403.032959,1918.118530 1397.064941,1922.668457 
	C1389.710815,1928.275146 1390.130859,1937.605347 1397.898804,1942.543579 
	C1400.111450,1943.950195 1402.658691,1944.891968 1405.144165,1945.793945 
	C1409.201050,1947.266235 1413.372559,1948.423096 1417.426880,1949.901611 
	C1434.583984,1956.158936 1438.383911,1966.260132 1429.231445,1982.947754 
z"/>
<path fill="#BE9E35" opacity="1.000000" stroke="none" 
	d="
M1784.745117,1917.585938 
	C1787.058716,1912.774536 1789.590454,1913.224731 1791.223389,1916.853149 
	C1792.349365,1919.354980 1792.262085,1922.402832 1792.928955,1926.511841 
	C1795.748291,1923.465820 1797.608887,1921.304565 1799.628052,1919.303345 
	C1805.195068,1913.786011 1811.921143,1911.522705 1819.661377,1912.748413 
	C1823.318604,1913.327515 1823.486694,1913.921143 1823.281006,1920.195435 
	C1822.052856,1920.261230 1820.785645,1920.428467 1819.526367,1920.381470 
	C1803.184082,1919.772461 1793.077515,1928.825195 1792.549805,1945.148071 
	C1792.184814,1956.440552 1792.503418,1967.753906 1792.432617,1979.057495 
	C1792.410278,1982.615234 1792.115967,1986.171387 1791.948120,1989.689453 
	C1786.172852,1991.137207 1784.497559,1988.853882 1784.520508,1984.255493 
	C1784.575317,1973.284424 1784.505493,1962.312744 1784.519653,1951.341309 
	C1784.533936,1940.370483 1784.589111,1929.399536 1784.745117,1917.585938 
z"/>
<path fill="#31302C" opacity="1.000000" stroke="none" 
	d="
M1876.299438,1610.191406 
	C1886.441284,1602.723877 1896.853760,1598.254883 1909.660645,1598.570923 
	C1909.660645,1600.674927 1909.992798,1602.314941 1909.609131,1603.765381 
	C1905.692993,1618.568848 1902.297729,1633.556274 1897.421021,1648.042358 
	C1894.496216,1656.730103 1889.794678,1665.000610 1884.799561,1672.755127 
	C1880.547974,1679.355469 1873.695190,1683.179810 1865.633789,1684.190308 
	C1854.767822,1685.552734 1849.193604,1681.684692 1846.991699,1671.036621 
	C1844.954102,1661.182373 1847.008301,1651.783447 1850.969727,1642.805420 
	C1856.577881,1630.095093 1865.034912,1619.478638 1876.299438,1610.191406 
z"/>
<path fill="#31302C" opacity="1.000000" stroke="none" 
	d="
M2055.379883,1513.332520 
	C2042.251831,1533.429810 2028.036865,1551.723755 2010.548706,1570.386841 
	C2010.548706,1566.292114 2010.241699,1564.481201 2010.594604,1562.809570 
	C2016.119385,1536.638306 2023.881348,1511.145386 2035.646851,1487.093506 
	C2039.997070,1478.200439 2045.784058,1469.932861 2051.574463,1461.852051 
	C2054.885986,1457.230713 2059.809082,1454.058105 2065.924072,1453.709595 
	C2072.136963,1453.355469 2075.839111,1456.053101 2075.602051,1462.260010 
	C2075.376953,1468.156372 2074.635010,1474.436646 2072.320068,1479.765991 
	C2067.429688,1491.024292 2061.364014,1501.772095 2055.379883,1513.332520 
z"/>
<path fill="#32312C" opacity="1.000000" stroke="none" 
	d="
M1863.904541,1797.795532 
	C1858.729980,1804.758057 1854.316895,1811.459351 1848.954590,1817.286865 
	C1843.415771,1823.306152 1836.045166,1826.647461 1827.787964,1827.407593 
	C1821.315186,1828.003540 1818.490845,1825.517822 1818.077637,1819.069824 
	C1817.634644,1812.156494 1819.646606,1805.811279 1823.740967,1800.344116 
	C1828.316895,1794.234009 1832.733765,1787.799561 1838.295044,1782.672729 
	C1851.981201,1770.055298 1866.276001,1758.097656 1880.361694,1745.916016 
	C1881.051147,1745.319824 1882.081177,1745.117432 1883.022339,1744.700684 
	C1884.103149,1754.674194 1877.506958,1772.990234 1863.904541,1797.795532 
z"/>
<path fill="#2C2C2C" opacity="1.000000" stroke="none" 
	d="
M1749.868408,1615.775269 
	C1750.124878,1615.625732 1750.887085,1615.900879 1751.526855,1616.601562 
	C1751.060913,1616.751465 1750.717651,1616.475830 1749.868408,1615.775269 
z"/>
<path fill="#31302C" opacity="1.000000" stroke="none" 
	d="
M924.382935,1604.056396 
	C930.009888,1602.119751 934.957886,1599.845581 940.065491,1599.399780 
	C942.587463,1599.179810 946.023987,1601.814331 947.930115,1604.091675 
	C950.313538,1606.939453 949.097290,1610.145386 946.603882,1613.040649 
	C944.241943,1615.783447 942.101196,1618.876221 940.571777,1622.146362 
	C936.200867,1631.491943 938.180176,1638.746460 946.421204,1644.910400 
	C948.781555,1646.675659 951.286865,1648.246948 954.329834,1650.318604 
	C951.659241,1664.072754 945.389526,1675.521118 933.926270,1683.386841 
	C920.807312,1692.388428 904.373291,1686.072632 901.480225,1670.347412 
	C896.741943,1644.592651 904.505371,1622.427856 924.382935,1604.056396 
z"/>
<path fill="#31302C" opacity="1.000000" stroke="none" 
	d="
M814.635437,1574.658203 
	C820.805359,1548.557373 828.563965,1523.813721 839.392700,1500.191650 
	C843.786194,1490.607666 849.360596,1481.390015 855.625732,1472.913452 
	C858.719360,1468.728027 864.250305,1465.622314 869.315918,1463.804688 
	C875.249207,1461.675537 879.207947,1464.909302 879.192505,1471.265625 
	C879.178955,1476.851562 878.631409,1482.696655 876.904175,1487.962891 
	C873.498474,1498.346436 869.875244,1508.791870 864.982544,1518.528564 
	C852.399780,1543.568604 836.508606,1566.522949 818.633606,1588.092041 
	C817.049255,1590.003662 815.065796,1591.584473 811.468628,1592.560303 
	C812.457214,1586.862183 813.445801,1581.163940 814.635437,1574.658203 
z"/>
<path fill="#31302C" opacity="1.000000" stroke="none" 
	d="
M1098.001587,1535.991455 
	C1086.270996,1551.637939 1074.389526,1566.226929 1060.451904,1579.613403 
	C1060.582886,1577.469360 1060.463623,1575.275146 1060.882690,1573.188965 
	C1066.412964,1545.652344 1075.118896,1519.137085 1087.727783,1494.046387 
	C1091.719971,1486.102295 1096.883667,1478.583374 1102.521240,1471.696777 
	C1105.473267,1468.090454 1110.315186,1465.393066 1114.837280,1463.863892 
	C1121.189941,1461.715942 1125.235840,1464.832520 1125.772705,1471.542725 
	C1126.086304,1475.460327 1126.124146,1479.761353 1124.840698,1483.376953 
	C1121.078491,1493.974365 1117.180542,1504.606323 1112.194458,1514.658691 
	C1108.533813,1522.039062 1103.075317,1528.527954 1098.001587,1535.991455 
z"/>
<path fill="#2C2C2C" opacity="1.000000" stroke="none" 
	d="
M662.678345,1683.239502 
	C662.494812,1683.020386 663.105835,1682.860474 663.105835,1682.860474 
	C663.105835,1682.860474 662.861877,1683.458618 662.678345,1683.239502 
z"/>
<path fill="#2E2E2C" opacity="1.000000" stroke="none" 
	d="
M1260.131348,1980.852051 
	C1243.804199,1986.569824 1227.786499,1983.292114 1212.128784,1984.040039 
	C1209.632202,1976.550171 1209.085205,1901.039551 1211.469727,1888.317749 
	C1225.398438,1888.290161 1239.628540,1886.591309 1253.670532,1889.500244 
	C1267.343994,1892.332886 1276.862061,1900.812500 1281.823730,1913.904785 
	C1287.207031,1928.109375 1287.248291,1942.543701 1282.365601,1956.908691 
	C1278.645752,1967.853149 1271.534302,1975.850098 1260.131348,1980.852051 
z"/>
<path fill="#31302C" opacity="1.000000" stroke="none" 
	d="
M1594.332764,1938.414062 
	C1596.592041,1949.886841 1596.228149,1960.435913 1591.968262,1970.518677 
	C1585.813599,1985.087158 1567.396606,1990.552002 1554.296265,1981.859741 
	C1549.376953,1978.595703 1546.082031,1974.516235 1546.351196,1967.952393 
	C1546.731812,1958.669189 1546.635620,1949.353271 1546.369507,1940.061890 
	C1546.225098,1935.021240 1547.991577,1931.228516 1551.379639,1927.619019 
	C1564.970459,1913.140259 1590.211792,1916.209839 1594.332764,1938.414062 
z"/>
<path fill="#31302C" opacity="1.000000" stroke="none" 
	d="
M1886.972412,1930.223633 
	C1887.485474,1941.247803 1887.017578,1951.583496 1887.912598,1961.799683 
	C1888.700684,1970.796753 1884.311279,1976.218384 1877.816528,1980.863770 
	C1865.676636,1989.546753 1844.179810,1987.529541 1839.945679,1966.283325 
	C1838.161987,1957.332397 1837.805420,1948.542603 1840.116089,1939.677368 
	C1842.829956,1929.264893 1848.527710,1921.557251 1859.553101,1919.284912 
	C1870.562256,1917.015747 1879.948486,1919.792114 1886.972412,1930.223633 
z"/>
<path fill="#31302C" opacity="1.000000" stroke="none" 
	d="
M1096.169556,1944.362427 
	C1090.932739,1944.362305 1086.671631,1944.362305 1082.520752,1944.362305 
	C1081.455688,1929.299805 1091.934814,1918.545410 1106.709717,1918.380249 
	C1121.258423,1918.217651 1130.422974,1928.047729 1129.634521,1944.362549 
	C1118.872437,1944.362549 1108.008789,1944.362549 1096.169556,1944.362427 
z"/>
<path fill="#2F2F2C" opacity="1.000000" stroke="none" 
	d="
M1649.181885,1985.448486 
	C1635.585083,1982.366699 1629.396362,1973.560181 1628.090332,1961.220947 
	C1627.397827,1954.677734 1627.416260,1947.876587 1628.377563,1941.378906 
	C1630.432129,1927.490967 1640.061157,1919.108521 1653.316162,1918.591431 
	C1666.907349,1918.061279 1676.671387,1925.230957 1679.938354,1939.180176 
	C1681.355103,1945.229736 1682.007202,1951.743530 1681.467529,1957.911865 
	C1679.941528,1975.355835 1670.536865,1987.662842 1649.181885,1985.448486 
z"/>
<path fill="#2F2F2C" opacity="1.000000" stroke="none" 
	d="
M904.026001,1919.387451 
	C915.783691,1922.489136 921.270813,1930.394409 923.310730,1940.888428 
	C925.104614,1950.117188 925.127441,1959.457764 922.022827,1968.507446 
	C918.099609,1979.943237 909.196899,1985.983032 896.849792,1985.832275 
	C884.996338,1985.687378 875.723633,1979.851807 872.722229,1968.643555 
	C870.702942,1961.102661 869.797852,1952.827393 870.513428,1945.076294 
	C872.287109,1925.863281 883.768616,1917.290649 904.026001,1919.387451 
z"/>
<path fill="#32312C" opacity="1.000000" stroke="none" 
	d="
M1711.679443,1972.177979 
	C1711.867065,1965.191406 1715.733032,1961.736572 1720.856934,1959.496582 
	C1730.737793,1955.176880 1741.093872,1953.701050 1752.426880,1954.357544 
	C1752.794922,1962.271851 1756.205444,1969.994507 1750.031128,1976.482666 
	C1743.022461,1983.847290 1734.232788,1987.388306 1723.947998,1986.207397 
	C1716.528687,1985.355591 1713.699097,1982.131836 1711.679443,1972.177979 
z"/>
<path fill="#31302C" opacity="1.000000" stroke="none" 
	d="
M1322.616089,1960.408936 
	C1333.194702,1955.473022 1343.595703,1953.899902 1355.730713,1954.257202 
	C1355.895508,1962.134399 1359.435303,1970.190063 1353.113037,1976.830566 
	C1345.553345,1984.770996 1335.884521,1988.143066 1324.884155,1985.635132 
	C1319.553467,1984.419678 1316.437378,1980.548950 1315.334717,1975.187500 
	C1314.022461,1968.806274 1316.726685,1964.219604 1322.616089,1960.408936 
z"/>
</svg>